<?xml version="1.0" encoding="UTF-8"?>
<!DOCTYPE svg PUBLIC "-//W3C//DTD SVG 1.1//EN" "http://www.w3.org/Graphics/SVG/1.1/DTD/svg11.dtd">
<!-- Creator: CorelDRAW 2019 (64 Bit) -->
<svg xmlns="http://www.w3.org/2000/svg" xml:space="preserve" width="1200px" height="309px" version="1.1" style="shape-rendering:geometricPrecision; text-rendering:geometricPrecision; image-rendering:optimizeQuality; fill-rule:evenodd; clip-rule:evenodd"
viewBox="0 0 1200 309.19"
 xmlns:xlink="http://www.w3.org/1999/xlink"
 xmlns:xodm="http://www.corel.com/coreldraw/odm/2003">
 <defs>
  <style type="text/css">
   <![CDATA[
    .fil0 {fill:#1ED3AA}
    .fil2 {fill:#3DFFD2}
    .fil1 {fill:white}
   ]]>
  </style>
 </defs>
 <g id="Camada_x0020_1">
  <metadata id="CorelCorpID_0Corel-Layer"/>
  <path class="fil0" d="M1156.13 221.49c-7.42,0 -14.72,-0.84 -21.92,-2.53 -7.2,-1.69 -12.98,-3.9 -17.34,-6.63l9.32 -21.26c4.04,2.5 8.84,4.5 14.4,5.97 5.56,1.47 11.07,2.21 16.52,2.21 5.02,0 8.59,-0.52 10.72,-1.56 2.12,-1.03 3.19,-2.53 3.19,-4.5 0,-1.96 -1.28,-3.35 -3.85,-4.17 -2.56,-0.82 -6.62,-1.61 -12.19,-2.37 -7.08,-0.87 -13.11,-2.02 -18.07,-3.44 -4.96,-1.41 -9.25,-4.03 -12.84,-7.85 -3.6,-3.82 -5.4,-9.16 -5.4,-16.03 0,-5.67 1.69,-10.72 5.07,-15.13 3.38,-4.42 8.31,-7.91 14.8,-10.47 6.49,-2.56 14.26,-3.85 23.32,-3.85 6.43,0 12.81,0.66 19.14,1.97 6.32,1.31 11.61,3.16 15.86,5.56l-9.32 21.1c-7.85,-4.36 -16.36,-6.54 -25.52,-6.54 -4.91,0 -8.51,0.57 -10.8,1.72 -2.29,1.14 -3.43,2.64 -3.43,4.49 0,2.08 1.25,3.52 3.76,4.34 2.51,0.82 6.65,1.66 12.43,2.54 7.31,1.09 13.36,2.34 18.16,3.76 4.8,1.42 8.97,4.01 12.52,7.77 3.54,3.76 5.31,9.02 5.31,15.79 0,5.56 -1.69,10.55 -5.07,14.96 -3.38,4.42 -8.37,7.88 -14.97,10.39 -6.6,2.51 -14.53,3.76 -23.8,3.76zm-62.89 -99.95c-5.67,0 -10.25,-1.58 -13.74,-4.74 -3.49,-3.17 -5.24,-7.09 -5.24,-11.78 0,-4.69 1.75,-8.62 5.24,-11.78 3.49,-3.16 8.07,-4.74 13.74,-4.74 5.67,0 10.25,1.5 13.74,4.49 3.49,3 5.24,6.85 5.24,11.54 0,4.91 -1.75,8.97 -5.24,12.18 -3.49,3.22 -8.07,4.83 -13.74,4.83zm-15.54 9.82l31.08 0 0 88.66 -31.08 0 0 -88.66zm-59.46 65.43c5.46,0 9.93,-1.88 13.42,-5.64 3.49,-3.76 5.23,-8.97 5.23,-15.62 0,-6.55 -1.74,-11.67 -5.23,-15.38 -3.49,-3.71 -7.96,-5.56 -13.42,-5.56 -5.45,0 -9.92,1.85 -13.41,5.56 -3.49,3.71 -5.24,8.83 -5.24,15.38 0,6.65 1.75,11.86 5.24,15.62 3.49,3.76 7.96,5.64 13.41,5.64zm0 24.7c-9.48,0 -18.05,-1.96 -25.68,-5.88 -7.63,-3.93 -13.6,-9.38 -17.91,-16.36 -4.31,-6.98 -6.46,-14.89 -6.46,-23.72 0,-8.73 2.15,-16.58 6.46,-23.56 4.31,-6.98 10.25,-12.41 17.83,-16.28 7.58,-3.87 16.17,-5.81 25.76,-5.81 9.6,0 18.22,1.94 25.85,5.81 7.64,3.87 13.58,9.27 17.83,16.2 4.26,6.92 6.38,14.8 6.38,23.64 0,8.83 -2.12,16.74 -6.38,23.72 -4.25,6.98 -10.19,12.43 -17.83,16.36 -7.63,3.92 -16.25,5.88 -25.85,5.88zm-103.95 -24.7c5.46,0 9.93,-1.88 13.42,-5.64 3.49,-3.76 5.23,-8.92 5.23,-15.46 0,-6.54 -1.74,-11.7 -5.23,-15.46 -3.49,-3.76 -7.96,-5.64 -13.42,-5.64 -5.45,0 -9.92,1.88 -13.41,5.64 -3.49,3.76 -5.24,8.92 -5.24,15.46 0,6.54 1.75,11.7 5.24,15.46 3.49,3.76 7.96,5.64 13.41,5.64zm6.55 -66.91c8.07,0 15.4,1.89 22,5.65 6.6,3.76 11.83,9.1 15.7,16.03 3.88,6.92 5.81,14.97 5.81,24.13 0,9.16 -1.93,17.2 -5.81,24.13 -3.87,6.92 -9.1,12.27 -15.7,16.03 -6.6,3.76 -13.93,5.64 -22,5.64 -10.36,0 -18.6,-3.1 -24.71,-9.32l0 39.59 -31.08 0 0 -120.4 29.61 0 0 8.83c5.78,-6.87 14.51,-10.31 26.18,-10.31zm-112.46 22.09c-4.8,0 -8.81,1.36 -12.02,4.09 -3.22,2.72 -5.27,6.43 -6.14,11.12l36.32 0c-0.88,-4.69 -2.92,-8.4 -6.14,-11.12 -3.21,-2.73 -7.22,-4.09 -12.02,-4.09zm47.28 23.88c0,0.22 -0.17,2.78 -0.49,7.69l-64.46 0c1.31,4.58 3.85,8.1 7.61,10.55 3.76,2.46 8.48,3.68 14.15,3.68 4.25,0 7.93,-0.6 11.04,-1.8 3.11,-1.2 6.24,-3.16 9.41,-5.88l16.36 17.01c-8.62,9.6 -21.22,14.39 -37.79,14.39 -10.36,0 -19.47,-1.96 -27.32,-5.88 -7.85,-3.93 -13.93,-9.38 -18.24,-16.36 -4.31,-6.98 -6.46,-14.89 -6.46,-23.72 0,-8.73 2.09,-16.55 6.29,-23.48 4.2,-6.93 10.01,-12.35 17.43,-16.28 7.41,-3.92 15.76,-5.89 25.03,-5.89 8.83,0 16.85,1.83 24.04,5.48 7.2,3.66 12.9,8.95 17.1,15.87 4.2,6.93 6.3,15.13 6.3,24.62zm-166.45 18.32c9.82,0 17.7,-2.78 23.64,-8.34 5.95,-5.56 8.92,-13.25 8.92,-23.06 0,-9.82 -2.97,-17.51 -8.92,-23.07 -5.94,-5.56 -13.82,-8.34 -23.64,-8.34l-20.45 0 0 62.81 20.45 0zm-52.84 -88.66l54.15 0c12.54,0 23.67,2.34 33.38,7.03 9.7,4.69 17.23,11.35 22.57,19.96 5.34,8.62 8.02,18.71 8.02,30.27 0,11.56 -2.68,21.64 -8.02,30.26 -5.34,8.62 -12.87,15.27 -22.57,19.96 -9.71,4.69 -20.84,7.03 -33.38,7.03l-54.15 0 0 -114.51zm-62.56 96.35c3.6,0 6.76,-0.87 9.49,-2.61 2.73,-1.75 4.69,-4.31 5.89,-7.69l0 -7.69 -13.42 0c-9.05,0 -13.57,3 -13.57,9 0,2.72 1.03,4.9 3.1,6.54 2.08,1.64 4.91,2.45 8.51,2.45zm1.15 -71.98c14.72,0 25.95,3.36 33.7,10.06 7.74,6.71 11.61,16.99 11.61,30.84l0 49.24 -28.95 0 0 -11.45c-4.48,8.62 -13.2,12.92 -26.18,12.92 -6.87,0 -12.81,-1.2 -17.83,-3.59 -5.02,-2.4 -8.81,-5.65 -11.37,-9.74 -2.56,-4.09 -3.84,-8.75 -3.84,-13.99 0,-8.39 3.21,-14.91 9.65,-19.54 6.43,-4.64 16.36,-6.96 29.77,-6.96l17.67 0c-0.55,-9.38 -6.82,-14.07 -18.81,-14.07 -4.26,0 -8.56,0.69 -12.93,2.05 -4.36,1.36 -8.07,3.24 -11.12,5.64l-10.47 -21.1c4.91,-3.27 10.88,-5.81 17.91,-7.61 7.04,-1.8 14.1,-2.7 21.19,-2.7zm-74.67 12.11c3.16,-4.04 7.28,-7.06 12.35,-9.08 5.07,-2.02 10.88,-3.03 17.42,-3.03l0 27.98c-2.83,-0.33 -5.18,-0.49 -7.03,-0.49 -6.66,0 -11.86,1.8 -15.63,5.4 -3.76,3.59 -5.64,9.1 -5.64,16.52l0 40.73 -31.08 0 0 -88.66 29.61 0 0 10.63zm-92.5 22.57c6.65,0 11.67,-1.44 15.05,-4.33 3.38,-2.89 5.07,-7.01 5.07,-12.35 0,-5.35 -1.69,-9.49 -5.07,-12.43 -3.38,-2.95 -8.4,-4.42 -15.05,-4.42l-18 0 0 33.53 18 0zm1.96 -59.05c10.36,0 19.36,1.72 26.99,5.15 7.64,3.44 13.53,8.34 17.67,14.73 4.15,6.38 6.22,13.87 6.22,22.49 0,8.61 -2.07,16.09 -6.22,22.41 -4.14,6.33 -10.03,11.21 -17.67,14.64 -7.63,3.44 -16.63,5.16 -26.99,5.16l-19.96 0 0 29.93 -32.39 0 0 -114.51 52.35 0zm-255.18 -105.13c85.38,0 154.59,69.21 154.59,154.59 0,85.38 -69.21,154.6 -154.59,154.6 -85.38,0 -154.6,-69.22 -154.6,-154.6 0,-85.38 69.22,-154.59 154.6,-154.59z"/>
  <path class="fil1" d="M154.57 124.07c17.06,0 30.9,13.83 30.9,30.9 0,17.07 -13.84,30.91 -30.9,30.91 -17.07,0 -30.91,-13.84 -30.91,-30.91 0,-17.07 13.84,-30.9 30.91,-30.9z"/>
  <path class="fil2" d="M247.28 124.07c17.07,0 30.91,13.83 30.91,30.9 0,17.07 -13.84,30.91 -30.91,30.91 -17.07,0 -30.9,-13.84 -30.9,-30.91 0,-17.07 13.83,-30.9 30.9,-30.9zm-185.36 0c17.07,0 30.91,13.83 30.91,30.9 0,17.07 -13.84,30.91 -30.91,30.91 -17.07,0 -30.9,-13.84 -30.9,-30.91 0,-17.07 13.83,-30.9 30.9,-30.9z"/>
 </g>
</svg>
