<?xml version="1.0" encoding="UTF-8"?>
<!DOCTYPE svg PUBLIC "-//W3C//DTD SVG 1.1//EN" "http://www.w3.org/Graphics/SVG/1.1/DTD/svg11.dtd">
<!-- Creator: CorelDRAW -->
<svg xmlns="http://www.w3.org/2000/svg" xml:space="preserve" width="14px" height="16px" style="shape-rendering:geometricPrecision; text-rendering:geometricPrecision; image-rendering:optimizeQuality; fill-rule:evenodd; clip-rule:evenodd"
viewBox="0 0 14.4867 16.2884"
 xmlns:xlink="http://www.w3.org/1999/xlink"
 version="1.1">
 <defs>
  <style type="text/css">
   <![CDATA[
    .fil0 {fill:#636b7f}
   ]]>
  </style>
 </defs>
 <g id="Layer_x0020_1">
  <metadata id="CorelCorpID_0Corel-Layer"/>
  <g id="_136912592">
   <g>
    <g>
     <path id="_86751536" class="fil0" d="M14.0347 2.34413l-3.38895 0 0 -0.552541c0,-0.987882 -0.8037,-1.79159 -1.79159,-1.79159l-3.22151 0c-0.987882,0 -1.79159,0.8037 -1.79159,1.79159l7.75637e-006 0.552541 -3.38895 0c-0.251159,0 -0.45208,0.200929 -0.45208,0.45208 0,0.251151 0.200929,0.452088 0.45208,0.452088l0.817103 0 0 10.6223c0,1.33281 1.085,2.41781 2.41781,2.41781l7.11277 0c1.33281,0 2.41781,-1.085 2.41781,-2.41781l-7.75637e-006 -10.6223 0.817103 0c0.251159,0 0.45208,-0.200929 0.45208,-0.45208 0,-0.251151 -0.200929,-0.452088 -0.45208,-0.452088zm-9.28947 -0.552541c0,-0.488923 0.398499,-0.887422 0.887422,-0.887422l3.22152 0c0.488923,0 0.887422,0.398499 0.887422,0.887422l0 0.552541 -4.99636 0 0 -0.552541zm7.56821 12.079c0,0.833841 -0.679799,1.51364 -1.51364,1.51364l-7.11278 0c-0.833841,0 -1.51364,-0.679799 -1.51364,-1.51364l0 -10.6223 10.1434 0 0 10.6223 -0.003343 0z"/>
     <path id="_86751632" class="fil0" d="M7.24337 13.7634c0.251159,0 0.45208,-0.200929 0.45208,-0.45208l0 -7.99015c0,-0.251159 -0.200929,-0.45208 -0.45208,-0.45208 -0.251151,0 -0.45208,0.200929 -0.45208,0.45208l0 7.9868c0,0.251159 0.200921,0.455431 0.45208,0.455431z"/>
     <path id="_86751728" class="fil0" d="M4.29311 13.2644c0.251159,0 0.45208,-0.200929 0.45208,-0.45208l0 -6.99557c0,-0.251159 -0.200929,-0.45208 -0.45208,-0.45208 -0.251151,0 -0.45208,0.200929 -0.45208,0.45208l0 6.99556c0,0.251159 0.204272,0.452088 0.45208,0.452088z"/>
     <path id="_86751824" class="fil0" d="M10.1936 13.2644c0.251159,0 0.45208,-0.200929 0.45208,-0.45208l0 -6.99557c0,-0.251159 -0.200929,-0.45208 -0.45208,-0.45208 -0.251151,0 -0.45208,0.200929 -0.45208,0.45208l0 6.99556c0,0.251159 0.200921,0.452088 0.45208,0.452088z"/>
    </g>
   </g>
   <g>
   </g>
   <g>
   </g>
   <g>
   </g>
   <g>
   </g>
   <g>
   </g>
   <g>
   </g>
   <g>
   </g>
   <g>
   </g>
   <g>
   </g>
   <g>
   </g>
   <g>
   </g>
   <g>
   </g>
   <g>
   </g>
   <g>
   </g>
   <g>
   </g>
  </g>
 </g>
</svg>
