<?xml version="1.0" encoding="UTF-8"?>
<!DOCTYPE svg PUBLIC "-//W3C//DTD SVG 1.1//EN" "http://www.w3.org/Graphics/SVG/1.1/DTD/svg11.dtd">
<!-- Creator: CorelDRAW -->
<svg xmlns="http://www.w3.org/2000/svg" xml:space="preserve" width="32px" height="32px" style="shape-rendering:geometricPrecision; text-rendering:geometricPrecision; image-rendering:optimizeQuality; fill-rule:evenodd; clip-rule:evenodd"
viewBox="0 0 32 32.0071"
 xmlns:xlink="http://www.w3.org/1999/xlink"
 version="1.1">
 <defs>
  <style type="text/css">
   <![CDATA[
    .fil0 {fill:#575E72}
   ]]>
  </style>
 </defs>
 <g id="Layer_x0020_1">
  <metadata id="CorelCorpID_0Corel-Layer"/>
  <g id="_101757824">
   <g>
    <path id="_123158480" class="fil0" d="M31.7232 30.3748l-7.77823 -7.77823c2.08648,-2.39877 3.34973,-5.52849 3.34973,-8.9492 0,-7.52983 -6.12463,-13.6474 -13.6474,-13.6474 -7.52983,0 -13.6474,6.12463 -13.6474,13.6474 0,7.52272 6.12463,13.6474 13.6474,13.6474 3.42071,0 6.55043,-1.26325 8.9492,-3.34973l7.7782 7.77823c0.184538,0.184507 0.432938,0.283873 0.674226,0.283873 0.241288,0 0.489688,-0.0922535 0.674195,-0.283873 0.369045,-0.369045 0.369045,-0.979377 3.07922e-005,-1.34842zm-29.8142 -16.7274c0,-6.4724 5.2659,-11.7312 11.7312,-11.7312 6.4724,0 11.7312,5.2659 11.7312,11.7312 0,6.46529 -5.25882,11.7383 -11.7312,11.7383 -6.46529,0 -11.7312,-5.2659 -11.7312,-11.7383z"/>
   </g>
   <g>
   </g>
   <g>
   </g>
   <g>
   </g>
   <g>
   </g>
   <g>
   </g>
   <g>
   </g>
   <g>
   </g>
   <g>
   </g>
   <g>
   </g>
   <g>
   </g>
   <g>
   </g>
   <g>
   </g>
   <g>
   </g>
   <g>
   </g>
   <g>
   </g>
  </g>
 </g>
</svg>
