<?xml version="1.0" encoding="UTF-8"?>
<!DOCTYPE svg PUBLIC "-//W3C//DTD SVG 1.1//EN" "http://www.w3.org/Graphics/SVG/1.1/DTD/svg11.dtd">
<!-- Creator: CorelDRAW -->
<svg xmlns="http://www.w3.org/2000/svg" xml:space="preserve" width="32px" height="32px" style="shape-rendering:geometricPrecision; text-rendering:geometricPrecision; image-rendering:optimizeQuality; fill-rule:evenodd; clip-rule:evenodd"
viewBox="0 0 28.5405 28.5405"
 xmlns:xlink="http://www.w3.org/1999/xlink"
 version="1.1">
 <defs>
  <style type="text/css">
   <![CDATA[
    .fil0 {fill:#fafafa}
   ]]>
  </style>
 </defs>
 <g id="Layer_x0020_1">
  <metadata id="CorelCorpID_0Corel-Layer"/>
  <g id="_91213168">
   <g>
    <g>
     <path id="_93629024" class="fil0" d="M14.2703 28.5405c7.86843,0 14.2703,-6.40184 14.2703,-14.2703 0,-7.86843 -6.40184,-14.2703 -14.2703,-14.2703 -7.86843,0 -14.2703,6.40184 -14.2703,14.2703 0,7.86843 6.40184,14.2703 14.2703,14.2703zm0 -27.1147c7.08275,0 12.8444,5.76165 12.8444,12.8444 0,7.08275 -5.76165,12.8444 -12.8444,12.8444 -7.08275,0 -12.8444,-5.76165 -12.8444,-12.8444 0,-7.08275 5.76165,-12.8444 12.8444,-12.8444z"/>
     <path id="_93629168" class="fil0" d="M10.4932 18.0473c0.139675,0.139675 0.320081,0.209522 0.506307,0.209522 0.186247,0 0.366654,-0.0698478 0.506328,-0.209522l2.77026 -2.77024 2.77026 2.77024c0.139675,0.139675 0.320081,0.209522 0.506307,0.209522 0.186247,0 0.366654,-0.0698478 0.506328,-0.209522 0.27937,-0.279349 0.27937,-0.727467 0,-1.00682l-2.78187 -2.77026 2.77024 -2.77026c0.27937,-0.279349 0.27937,-0.727488 0,-1.00682 -0.279349,-0.279349 -0.727467,-0.27937 -1.00682,0l-2.77026 2.77024 -2.77026 -2.77024c-0.279349,-0.27937 -0.727488,-0.27937 -1.00682,0 -0.279349,0.279349 -0.27937,0.727467 0,1.00682l2.77024 2.77026 -2.77024 2.77026c-0.27937,0.279349 -0.27937,0.727467 0,1.00682z"/>
    </g>
   </g>
   <g>
   </g>
   <g>
   </g>
   <g>
   </g>
   <g>
   </g>
   <g>
   </g>
   <g>
   </g>
   <g>
   </g>
   <g>
   </g>
   <g>
   </g>
   <g>
   </g>
   <g>
   </g>
   <g>
   </g>
   <g>
   </g>
   <g>
   </g>
   <g>
   </g>
  </g>
 </g>
</svg>
