<?xml version="1.0" encoding="UTF-8"?>
<!DOCTYPE svg PUBLIC "-//W3C//DTD SVG 1.1//EN" "http://www.w3.org/Graphics/SVG/1.1/DTD/svg11.dtd">
<!-- Creator: CorelDRAW -->
<svg xmlns="http://www.w3.org/2000/svg" xml:space="preserve" width="26px" height="26px" style="shape-rendering:geometricPrecision; text-rendering:geometricPrecision; image-rendering:optimizeQuality; fill-rule:evenodd; clip-rule:evenodd"
viewBox="0 0 26 26"
 xmlns:xlink="http://www.w3.org/1999/xlink"
 version="1.1">
 <defs>
  <style type="text/css">
   <![CDATA[
    .fil0 {fill:#636b7f}
   ]]>
  </style>
 </defs>
 <g id="Layer_x0020_1">
  <metadata id="CorelCorpID_0Corel-Layer"/>
  <g id="_89798536">
   <g>
    <g>
     <path id="_89798968" class="fil0" d="M24.6693 10.2707l-1.82494 -0.309588c-0.190098,-0.61374 -0.434512,-1.20576 -0.733242,-1.77062l1.07542 -1.50449c0.456241,-0.640904 0.385632,-1.51535 -0.173805,-2.06935l-1.61855 -1.61855c-0.304153,-0.304153 -0.706078,-0.472535 -1.13516,-0.472535 -0.336739,0 -0.657198,0.103196 -0.928763,0.29873l-1.50993 1.07542c-0.586589,-0.309588 -1.20033,-0.56486 -1.83581,-0.754958l-0.304153 -1.80322c-0.130348,-0.776687 -0.798416,-1.34155 -1.58596,-1.34155l-2.28662 -1.2381e-005c-0.787545,0 -1.45561,0.56486 -1.58596,1.34155l-0.315023 1.84667c-0.608317,0.190098 -1.20033,0.439948 -1.7652,0.7441l-1.49362 -1.07542c-0.271566,-0.195534 -0.597447,-0.29873 -0.934199,-0.29873 -0.429077,0 -0.836438,0.16837 -1.13516,0.472535l-1.62398 1.61855c-0.554002,0.554002 -0.630046,1.42845 -0.173805,2.06935l1.08627 1.52622c-0.29873,0.570295 -0.537708,1.16232 -0.722371,1.77606l-1.80322 0.304153c-0.776687,0.130348 -1.34155,0.798416 -1.34155,1.58596l0 2.28662c0,0.787545 0.56486,1.45561 1.34155,1.58596l1.84667 0.315023c0.190098,0.608317 0.439948,1.20033 0.7441,1.7652l-1.06998 1.4882c-0.456241,0.640904 -0.385632,1.51535 0.173805,2.06935l1.61855 1.61855c0.304153,0.304153 0.706078,0.472535 1.13516,0.472535 0.336739,0 0.657198,-0.103196 0.928763,-0.29873l1.52622 -1.08627c0.548567,0.287859 1.1243,0.521415 1.71632,0.706078l0.304153 1.82494c0.130348,0.776687 0.798416,1.34155 1.58596,1.34155l2.29205 1.2381e-005c0.787545,0 1.45561,-0.56486 1.58596,-1.34155l0.309588 -1.82494c0.61374,-0.190098 1.20576,-0.434512 1.77062,-0.733242l1.50449 1.07542c0.271566,0.195534 0.597447,0.29873 0.934199,0.29873l0 0c0.429077,0 0.831003,-0.16837 1.13516,-0.472535l1.61855 -1.61855c0.554002,-0.554002 0.630046,-1.42845 0.173805,-2.06935l-1.07542 -1.50993c0.29873,-0.570295 0.548567,-1.16232 0.733242,-1.77062l1.82494 -0.304153c0.776687,-0.130348 1.34155,-0.798416 1.34155,-1.58596l0 -2.28662c0.0108705,-0.787558 -0.553989,-1.45561 -1.33068,-1.58597zm-0.124925 3.87258c0,0.070609 -0.0488803,0.130348 -0.119489,0.141218l-2.28118 0.380197c-0.287859,0.0488803 -0.51598,0.260707 -0.586589,0.537708 -0.206392,0.798416 -0.521415,1.56423 -0.945057,2.27575 -0.146653,0.249849 -0.135783,0.559437 0.0325869,0.798416l1.34155 1.89013c0.0380222,0.0543156 0.0325869,0.135783 -0.0162934,0.184663l-1.61855 1.61855c-0.0380222,0.0380222 -0.0760443,0.0434451 -0.103196,0.0434451 -0.0325869,0 -0.0597509,-0.0108582 -0.0814672,-0.0271516l-1.88469 -1.34155c-0.233543,-0.16837 -0.548567,-0.17924 -0.798416,-0.0325869 -0.711513,0.423642 -1.47733,0.738665 -2.27575,0.945057 -0.282436,0.070609 -0.494251,0.304153 -0.537708,0.586589l-0.385632 2.28118c-0.0108582,0.070609 -0.070609,0.119489 -0.141218,0.119489l-2.2866 0c-0.070609,0 -0.130348,-0.0488803 -0.141218,-0.119489l-0.380197 -2.28118c-0.0488803,-0.287859 -0.260707,-0.51598 -0.537708,-0.586589 -0.776687,-0.200957 -1.52622,-0.510544 -2.22687,-0.91247 -0.114054,-0.0651738 -0.244414,-0.0977607 -0.369339,-0.0977607 -0.146653,0 -0.29873,0.0434451 -0.423642,0.135783l-1.90098 1.35242c-0.0271516,0.0162934 -0.0543156,0.0271516 -0.0814672,0.0271516 -0.0217287,0 -0.0651738,-0.00543527 -0.103196,-0.0434451l-1.61855 -1.61855c-0.0488803,-0.0488803 -0.0543156,-0.124925 -0.0162934,-0.184663l1.33612 -1.87382c0.16837,-0.238979 0.17924,-0.554002 0.0325869,-0.803839 -0.423642,-0.706078 -0.749535,-1.47191 -0.955927,-2.27031 -0.0760443,-0.277001 -0.304153,-0.488828 -0.586589,-0.537708l-2.29747 -0.391055c-0.070609,-0.0108582 -0.119489,-0.070609 -0.119489,-0.141218l0 -2.28662c0,-0.070609 0.0488803,-0.130348 0.119489,-0.141218l2.26489 -0.380197c0.287859,-0.0488803 0.521415,-0.260707 0.592024,-0.543144 0.200957,-0.798416 0.510544,-1.56967 0.928763,-2.28118 0.146653,-0.249849 0.130348,-0.559437 -0.0380222,-0.792981l-1.35242 -1.90098c-0.0380222,-0.0543156 -0.0325869,-0.135783 0.0162934,-0.184663l1.61855 -1.61855c0.0380222,-0.0380222 0.0760443,-0.0434451 0.103196,-0.0434451 0.0325869,0 0.0597509,0.0108582 0.0814672,0.0271516l1.87382 1.33612c0.238979,0.16837 0.554002,0.17924 0.803839,0.0325869 0.706078,-0.423642 1.47191,-0.749535 2.27031,-0.955927 0.277001,-0.0760443 0.488828,-0.304153 0.537708,-0.586589l0.391055 -2.29747c0.0108582,-0.070609 0.070609,-0.119489 0.141218,-0.119489l2.28664 -2.47621e-005c0.070609,0 0.130348,0.0488803 0.141218,0.119489l0.380197 2.26489c0.0488803,0.287859 0.260707,0.521415 0.543144,0.592024 0.820132,0.206392 1.60225,0.526838 2.33006,0.955927 0.249849,0.146653 0.559437,0.135783 0.798416,-0.0325869l1.87382 -1.34698c0.0271516,-0.0162934 0.0543156,-0.0271516 0.0814672,-0.0271516 0.0217287,0 0.0651738,0.00543527 0.103196,0.0434451l1.61855 1.61855c0.0488803,0.0488803 0.0543156,0.124925 0.0162934,0.184663l-1.34155 1.88469c-0.16837,0.233543 -0.17924,0.548567 -0.0325869,0.798416 0.423642,0.711513 0.738665,1.47733 0.945057,2.27575 0.070609,0.282436 0.304153,0.494251 0.586589,0.537708l2.28118 0.385632c0.070609,0.0108582 0.119489,0.070609 0.119489,0.141218l0 2.28662 -0.00543527 -2.47621e-005z"/>
     <path id="_89798560" class="fil0" d="M13.0027 7.38667c-3.09589,0 -5.61061,2.51472 -5.61061,5.61061 0,3.09589 2.51472,5.61061 5.61061,5.61061 3.09589,0 5.61061,-2.51472 5.61061,-5.61061 0,-3.09589 -2.51474,-5.61061 -5.61061,-5.61061zm0 9.75476c-2.28662,0 -4.14414,-1.85753 -4.14414,-4.14414 0,-2.28662 1.85753,-4.14414 4.14414,-4.14414 2.28662,0 4.14414,1.85753 4.14414,4.14414 0,2.28662 -1.85754,4.14414 -4.14414,4.14414z"/>
    </g>
   </g>
   <g>
   </g>
   <g>
   </g>
   <g>
   </g>
   <g>
   </g>
   <g>
   </g>
   <g>
   </g>
   <g>
   </g>
   <g>
   </g>
   <g>
   </g>
   <g>
   </g>
   <g>
   </g>
   <g>
   </g>
   <g>
   </g>
   <g>
   </g>
   <g>
   </g>
  </g>
 </g>
</svg>
