<?xml version="1.0" encoding="UTF-8"?>
<!DOCTYPE svg PUBLIC "-//W3C//DTD SVG 1.1//EN" "http://www.w3.org/Graphics/SVG/1.1/DTD/svg11.dtd">
<!-- Creator: CorelDRAW -->
<svg xmlns="http://www.w3.org/2000/svg" xml:space="preserve" width="16px" height="16px" style="shape-rendering:geometricPrecision; text-rendering:geometricPrecision; image-rendering:optimizeQuality; fill-rule:evenodd; clip-rule:evenodd"
viewBox="0 0 9.74447 9.74447"
 xmlns:xlink="http://www.w3.org/1999/xlink"
 enable-background="new 0 0 64 64">
 <defs>
  <style type="text/css">
   <![CDATA[
    .fil0 {fill:#575E72}
   ]]>
  </style>
 </defs>
 <g id="Layer_x0020_1">
  <metadata id="CorelCorpID_0Corel-Layer"/>
  <g id="_86743616">
   <path id="_86265552" class="fil0" d="M6.90234 0l-4.0602 0c-1.56724,0 -2.84213,1.2749 -2.84213,2.84213l0 4.06019c0,1.56724 1.2749,2.84213 2.84213,2.84213l4.0602 9.59102e-006c1.56724,0 2.84213,-1.2749 2.84213,-2.84213l0 -4.06019c0,-1.56724 -1.2749,-2.84213 -2.84213,-2.84213l0 -9.59102e-006zm2.03009 6.90234c0,1.1194 -0.910705,2.0301 -2.0301,2.0301l-4.06019 -9.59102e-006c-1.1194,0 -2.0301,-0.910705 -2.0301,-2.0301l0 -4.06019c0,-1.1194 0.910705,-2.0301 2.0301,-2.0301l4.0602 9.59102e-006c1.1194,0 2.0301,0.910705 2.0301,2.0301l-9.59102e-006 4.06019z"/>
   <path id="_86265648" class="fil0" d="M4.87224 2.63913c-1.23126,0 -2.2331,1.00186 -2.2331,2.2331 0,1.23125 1.00186,2.2331 2.2331,2.2331 1.23125,0 2.2331,-1.00186 2.2331,-2.2331 0,-1.23125 -1.00186,-2.2331 -2.2331,-2.2331zm0 3.65418c-0.783615,0 -1.42107,-0.637448 -1.42107,-1.42107 0,-0.783624 0.637448,-1.42107 1.42107,-1.42107 0.783624,0 1.42107,0.637448 1.42107,1.42107 0,0.783624 -0.637448,1.42107 -1.42107,1.42107z"/>
   <path id="_86265696" class="fil0" d="M7.51137 1.62408c-0.335781,0 -0.609029,0.273248 -0.609029,0.609029 0,0.335781 0.273248,0.609029 0.609029,0.609029 0.335781,0 0.609029,-0.273248 0.609029,-0.609029 0,-0.335781 -0.273248,-0.609029 -0.609029,-0.609029z"/>
  </g>
 </g>
</svg>
