<?xml version="1.0" encoding="UTF-8"?>
<!DOCTYPE svg PUBLIC "-//W3C//DTD SVG 1.1//EN" "http://www.w3.org/Graphics/SVG/1.1/DTD/svg11.dtd">
<!-- Creator: CorelDRAW -->
<svg xmlns="http://www.w3.org/2000/svg" xml:space="preserve" width="16px" height="16px" style="shape-rendering:geometricPrecision; text-rendering:geometricPrecision; image-rendering:optimizeQuality; fill-rule:evenodd; clip-rule:evenodd"
viewBox="0 0 9.5873 9.5873"
 xmlns:xlink="http://www.w3.org/1999/xlink"
 enable-background="new 0 0 64 64">
 <defs>
  <style type="text/css">
   <![CDATA[
    .fil0 {fill:#575E72}
   ]]>
  </style>
 </defs>
 <g id="Layer_x0020_1">
  <metadata id="CorelCorpID_0Corel-Layer"/>
  <g id="_90334176">
   <path id="_132225800" class="fil0" d="M6.79101 0l-3.99472 0c-1.54196,0 -2.79629,1.25434 -2.79629,2.79629l0 3.99471c0,1.54196 1.25434,2.79629 2.79629,2.79629l3.99472 9.43632e-006c1.54196,0 2.79629,-1.25434 2.79629,-2.79629l0 -3.99471c0,-1.54196 -1.25434,-2.79629 -2.79629,-2.79629l0 -9.43632e-006zm1.99735 6.79101c0,1.10134 -0.896016,1.99736 -1.99736,1.99736l-3.99471 -9.43632e-006c-1.10134,0 -1.99736,-0.896016 -1.99736,-1.99736l0 -3.99471c0,-1.10134 0.896016,-1.99736 1.99736,-1.99736l3.99472 9.43632e-006c1.10134,0 1.99736,0.896016 1.99736,1.99736l-9.43632e-006 3.99471z"/>
   <path id="_132225896" class="fil0" d="M5.99187 5.5926l-1.19841 0 0 -0.599206 0.399666 0c0.660929,0 1.19841,-0.537493 1.19841,-1.19841 0,-0.66092 -0.537493,-1.19841 -1.19841,-1.19841l-0.416246 0c-0.0954767,-0.566047 -0.589025,-0.998674 -1.18183,-0.998674 -0.660929,0 -1.19841,0.537493 -1.19841,1.19821l0 3.19597c0,1.10134 0.896016,1.99736 1.99736,1.99736l1.59788 -9.43632e-006c0.660929,0 1.19841,-0.537493 1.19841,-1.19841 0,-0.66092 -0.537493,-1.19841 -1.19841,-1.19841zm0 1.59788l-1.59789 0c-0.660929,0 -1.19841,-0.537493 -1.19841,-1.19841l0 -3.19577c0,-0.22031 0.179167,-0.399468 0.399468,-0.399468 0.2203,0 0.399468,0.179167 0.399468,0.399468l0 0.199739c0,0.106064 0.0419444,0.207722 0.11685,0.282627 0.0749055,0.0746979 0.176563,0.11685 0.282627,0.11685l0.799143 -9.43632e-006c0.22031,0 0.399468,0.179167 0.399468,0.399468 0,0.2203 -0.179167,0.399468 -0.399468,0.399468l-0.799143 9.43632e-006c-0.220508,0 -0.399468,0.17896 -0.399468,0.399468l0 0.998674c0,0.44062 0.358325,0.798945 0.798945,0.798945l1.19841 0c0.22031,0 0.399468,0.179167 0.399468,0.399468 0,0.2203 -0.179167,0.399468 -0.399468,0.399468l0 9.43632e-006z"/>
  </g>
 </g>
</svg>
