<?xml version="1.0" encoding="UTF-8"?>
<!DOCTYPE svg PUBLIC "-//W3C//DTD SVG 1.1//EN" "http://www.w3.org/Graphics/SVG/1.1/DTD/svg11.dtd">
<!-- Creator: CorelDRAW -->
<svg xmlns="http://www.w3.org/2000/svg" xml:space="preserve" width="16px" height="16px" style="shape-rendering:geometricPrecision; text-rendering:geometricPrecision; image-rendering:optimizeQuality; fill-rule:evenodd; clip-rule:evenodd"
viewBox="0 0 15.6183 15.6183"
 xmlns:xlink="http://www.w3.org/1999/xlink">
 <defs>
  <style type="text/css">
   <![CDATA[
    .fil0 {fill:#575E72}
   ]]>
  </style>
 </defs>
 <g id="Layer_x0020_1">
  <metadata id="CorelCorpID_0Corel-Layer"/>
  <path class="fil0" d="M7.20816 4.76001c-0.400864,-0.256395 -0.909119,-0.272674 -1.32592,-0.0445797 -0.417143,0.228417 -0.676136,0.666052 -0.676136,1.14144l0 3.90457c0,0.475389 0.259008,0.913023 0.676136,1.14144 0.195228,0.107053 0.410303,0.160087 0.625377,0.160087 0.244036,0 0.487425,-0.06833 0.700547,-0.204667 0.013666,-0.00879297 0.027332,-0.0182162 0.0403523,-0.0279776l2.57929 -1.93504c0.366707,-0.241438 0.584379,-0.645238 0.584379,-1.08612 0,-0.440878 -0.217687,-0.844693 -0.584379,-1.08612l-2.61964 -1.96304zm3.85479 -4.76001l-6.50762 0c-2.51194,0 -4.55532,2.0434 -4.55532,4.55532l0 6.50761c0,2.51194 2.0434,4.55532 4.55532,4.55532l6.50762 1.53723e-005c2.51194,0 4.55532,-2.0434 4.55532,-4.55532l0 -6.50761c0,-2.51194 -2.0434,-4.55532 -4.55532,-4.55532l0 -1.53723e-005zm3.2538 11.0629c0,1.79415 -1.45966,3.25381 -3.25381,3.25381l-6.50761 -1.53723e-005c-1.79415,0 -3.25381,-1.45966 -3.25381,-3.25381l0 -6.50761c0,-1.79415 1.45966,-3.25381 3.25381,-3.25381l6.50762 1.53723e-005c1.79415,0 3.25381,1.45966 3.25381,3.25381l-1.53723e-005 6.50761z"/>
 </g>
</svg>
