<?xml version="1.0" encoding="UTF-8"?>
<!DOCTYPE svg PUBLIC "-//W3C//DTD SVG 1.1//EN" "http://www.w3.org/Graphics/SVG/1.1/DTD/svg11.dtd">
<!-- Creator: CorelDRAW -->
<svg xmlns="http://www.w3.org/2000/svg" xml:space="preserve" width="16px" height="16px" style="shape-rendering:geometricPrecision; text-rendering:geometricPrecision; image-rendering:optimizeQuality; fill-rule:evenodd; clip-rule:evenodd"
viewBox="0 0 8.69818 8.69621"
 xmlns:xlink="http://www.w3.org/1999/xlink">
 <defs>
  <style type="text/css">
   <![CDATA[
    .fil0 {fill:#575E72}
   ]]>
  </style>
 </defs>
 <g id="Layer_x0020_1">
  <metadata id="CorelCorpID_0Corel-Layer"/>
  <path class="fil0" d="M4.34909 0c-1.16174,0 -2.25393,0.452548 -3.07515,1.27394 -0.821394,0.821453 -1.27394,1.91342 -1.27394,3.07515 0,1.16175 0.452548,2.25397 1.27394,3.07534 0.847914,0.847929 1.9614,1.27178 3.07515,1.27178 1.11373,0 2.22751,-0.423854 3.0752,-1.27178 0.821379,-0.821365 1.27388,-1.91357 1.27388,-3.07534 0,-1.16174 -0.452504,-2.25393 -1.27388,-3.07515 -0.821497,-0.821394 -1.91345,-1.27394 -3.0752,-1.27394zm2.56271 6.91198c-1.41308,1.41311 -3.71228,1.41311 -5.12536,0 -0.68449,-0.684622 -1.06156,-1.59484 -1.06156,-2.56289 0,-0.968063 0.377084,-1.87824 1.06156,-2.56264 0.684402,-0.684475 1.59458,-1.06156 2.56264,-1.06156 0.968048,0 1.87827,0.377084 2.56271,1.06156 0.684431,0.684402 1.06153,1.59458 1.06153,2.56264 0,0.968048 -0.377099,1.87827 -1.06153,2.56289zm-1.44685 -3.59216l0.101147 -0.0596632 -0.0492813 0.111544 -1.0006 2.64007 -0.0887092 0.00581507 -0.219475 -0.878957c0.0998401,-0.134231 0.323221,-0.2835 0.323221,-0.418054l0 -0.103761c0,-0.124921 -0.186332,-0.311283 -0.311239,-0.311283l-0.103746 0c-0.13454,0 -0.283779,0.22341 -0.414985,0.311283l-0.879412 -0.216626 -0.00240826 -0.0946565 2.64549 -0.985714zm-1.03745 3.52786c0.730262,0 0.939516,-0.953628 1.1484,-1.54919 0.130105,-0.370931 0.718999,-1.70125 0.718999,-2.03055l0 -0.103761c0,-0.311664 -0.310857,-0.622565 -0.622463,-0.622565l-0.103746 0c-0.29629,0 -1.56612,0.545574 -1.87463,0.667221 -0.507013,0.199886 -1.51311,0.426013 -1.65584,0.939017 -0.260592,0.936623 0.765798,0.934905 1.34462,1.15062 0.373207,0.139107 0.175921,1.5492 1.04466,1.5492z"/>
 </g>
</svg>
