<?xml version="1.0" encoding="UTF-8"?>
<!DOCTYPE svg PUBLIC "-//W3C//DTD SVG 1.1//EN" "http://www.w3.org/Graphics/SVG/1.1/DTD/svg11.dtd">
<!-- Creator: CorelDRAW -->
<svg xmlns="http://www.w3.org/2000/svg" xml:space="preserve" width="16px" height="16px" style="shape-rendering:geometricPrecision; text-rendering:geometricPrecision; image-rendering:optimizeQuality; fill-rule:evenodd; clip-rule:evenodd"
viewBox="0 0 11.4175 11.4798"
 xmlns:xlink="http://www.w3.org/1999/xlink"
 enable-background="new 0 0 64 64">
 <defs>
  <style type="text/css">
   <![CDATA[
    .fil0 {fill:#575E72}
   ]]>
  </style>
 </defs>
 <g id="Layer_x0020_1">
  <metadata id="CorelCorpID_0Corel-Layer"/>
  <g id="_90336744">
   <path id="_90333840" class="fil0" d="M11.1955 10.4044c-0.00737193,-0.00642796 -0.0152271,-0.0128447 -0.023307,-0.0185534 -0.757128,-0.56802 -1.56277,-1.53565 -1.6503,-2.60319l1.47761 -1.47761c0.269738,-0.269502 0.41793,-0.627962 0.41793,-1.00974 0,-0.381778 -0.148191,-0.740238 -0.417694,-1.00974 -0.401275,-0.401039 -0.982624,-0.508314 -1.48523,-0.331107l0 -0.0863504c0,-1.01377 -0.395567,-1.96928 -1.1151,-2.69191 -0.721201,-0.718347 -1.67671,-1.11392 -2.69072,-1.11392 -2.09844,0 -3.80584,1.70739 -3.80584,3.80584l0 0.0825408c-0.151046,-0.0532779 -0.310891,-0.0825408 -0.475725,-0.0825408 -0.381531,0 -0.740002,0.148427 -1.00949,0.417694 -0.556603,0.556603 -0.556603,1.46239 0,2.019l1.47737 1.47761c-0.0872944,1.06777 -0.893183,2.0354 -1.6503,2.60319 -0.00809114,0.00594474 -0.0164183,0.0128447 -0.0247342,0.0199806 -0.193389,0.160081 -0.268783,0.422919 -0.188153,0.661979 0.0832488,0.246667 0.314217,0.412221 0.574684,0.412221l1.00853 0c0.605363,0 1.2055,-0.150327 1.73308,-0.433393 0.260939,-0.138201 0.502842,-0.307081 0.721449,-0.503561 0.335389,0.572066 0.955743,0.936954 1.63913,0.936954 0.510697,0 0.98904,-0.198615 1.34251,-0.555412 0.115366,-0.113703 0.215505,-0.242622 0.297574,-0.382014 0.669823,0.597991 1.55182,0.937426 2.45357,0.937426l1.00853 0c0.260467,0 0.491188,-0.165554 0.574448,-0.411749 0.0811137,-0.240003 0.00500077,-0.503797 -0.189816,-0.663642l0 1.12377e-005zm-1.39318 0.123918c-0.724539,0 -1.4317,-0.295192 -1.94027,-0.809934 -0.0894408,-0.090632 -0.21146,-0.141527 -0.338479,-0.141527l-0.47096 1.12377e-005c-0.20338,0 -0.384385,0.129402 -0.450283,0.322072 -0.0444788,0.13011 -0.12012,0.250477 -0.223113,0.351807 -0.177443,0.17887 -0.415547,0.277593 -0.670542,0.277593 -0.403658,0 -0.763073,-0.253803 -0.89461,-0.632008 -0.0666058,-0.191243 -0.246667,-0.319454 -0.449328,-0.319454l-0.470972 -1.12377e-005c-0.127975,0 -0.25023,0.0516147 -0.339906,0.142955 -0.190535,0.194333 -0.409603,0.357988 -0.653416,0.486907 -0.392004,0.210268 -0.836567,0.321589 -1.28542,0.321589l-0.0941831 0c0.847041,-0.870348 1.33346,-1.92218 1.33346,-2.93525 0,-0.126064 -0.0501875,-0.247139 -0.139392,-0.336344l-1.62461 -1.62461c-0.0894408,-0.0896768 -0.138909,-0.209324 -0.138909,-0.336816 0,-0.127492 0.0494796,-0.247139 0.138673,-0.336816 0.17959,-0.179354 0.494526,-0.179118 0.673632,0l0.730248 0.730248c0.18577,0.18577 0.486907,0.18577 0.672924,0 0.18577,-0.18577 0.18577,-0.486907 0,-0.672924l-0.312554 -0.312318 0 -0.835376c0,-1.57395 1.28042,-2.85437 2.85437,-2.85437 0.760455,0 1.47761,0.297091 2.01781,0.83514 0.539477,0.541859 0.836567,1.25901 0.836567,2.01923l0 0.835376 -0.312554 0.312554c-0.18577,0.18577 -0.18577,0.486907 0,0.672677 0.18577,0.18577 0.486907,0.18577 0.672677,0l0.730248 -0.730248c0.18577,-0.18577 0.487862,-0.18577 0.673632,0 0.0896768,0.0896768 0.138909,0.209324 0.138909,0.336816 0,0.127492 -0.0492436,0.247139 -0.138909,0.336816l-1.62461 1.62461c-0.0892048,0.0892048 -0.139392,0.210268 -0.139392,0.336344 0,1.01307 0.486671,2.0649 1.33346,2.93525l-0.0942056 1.12377e-005z"/>
  </g>
 </g>
</svg>
