<?xml version="1.0" encoding="UTF-8"?>
<!DOCTYPE svg PUBLIC "-//W3C//DTD SVG 1.1//EN" "http://www.w3.org/Graphics/SVG/1.1/DTD/svg11.dtd">
<!-- Creator: CorelDRAW -->
<svg xmlns="http://www.w3.org/2000/svg" xml:space="preserve" width="16px" height="16px" style="shape-rendering:geometricPrecision; text-rendering:geometricPrecision; image-rendering:optimizeQuality; fill-rule:evenodd; clip-rule:evenodd"
viewBox="0 0 14.248 14.2494"
 xmlns:xlink="http://www.w3.org/1999/xlink">
 <defs>
  <style type="text/css">
   <![CDATA[
    .fil0 {fill:#575E72}
   ]]>
  </style>
 </defs>
 <g id="Layer_x0020_1">
  <metadata id="CorelCorpID_0Corel-Layer"/>
  <path class="fil0" d="M12.1663 2.08131c-2.77756,-2.77549 -7.29769,-2.77488 -10.0758,0.000588948 -2.37063,2.37331 -2.76212,6.03714 -0.988086,8.83992l-1.01124 2.05067c-0.00475365,0.00949328 -0.00890433,0.0190006 -0.013055,0.0287883 -0.14425,0.336584 -0.0700427,0.721545 0.188772,0.980374 0.25852,0.25852 0.642598,0.333022 0.980374,0.188772 0.00949328,-0.00415068 0.0190006,-0.00831538 0.0287883,-0.013055l2.05037 -1.01094c1.16884,0.739957 2.48758,1.10294 3.80037,1.10294 1.83429,0 3.65641,-0.709374 5.04014,-2.09163 2.77488,-2.77815 2.77488,-7.29799 -0.000588948,-10.0764zm-8.45377 9.89568c-0.101804,-0.0718236 -0.221416,-0.108338 -0.341632,-0.108338 -0.0896322,0 -0.179279,0.0201785 -0.262685,0.0611384l-1.55796 0.768142 0.768142 -1.55796c0.0958723,-0.195012 0.0780636,-0.426819 -0.0472,-0.604302 -1.66423,-2.3635 -1.38729,-5.56579 0.658626,-7.6141 2.31542,-2.31276 6.08225,-2.31276 8.39708,-0.000588948 2.31276,2.31542 2.31276,6.08225 0.000588948,8.39708 -2.04948,2.04621 -5.25177,2.32344 -7.61498,0.65892l2.80451e-005 1.40226e-005zm5.93443 -4.43793c-0.579076,-0.577898 -1.52027,-0.578192 -2.09876,0.000294474l-0.705517 0.705223c-0.296521,-0.262082 -0.577001,-0.542575 -0.839082,-0.839082l0.705517 -0.705517c0.577898,-0.578781 0.577898,-1.51998 -0.000294474,-2.09876l-0.981257 -0.980963c-0.199457,-0.199457 -0.474005,-0.292062 -0.753306,-0.252294 -0.279007,0.039179 -0.517643,0.202724 -0.654475,0.449367l-0.678804 1.22197c-0.221416,0.398325 -0.197676,0.878261 0.0617414,1.25314l0.602227 0.869063c0.138024,0.201532 0.279007,0.390907 0.431264,0.579076 0.519424,0.655948 1.11541,1.25195 1.76603,1.76721 0.00326726,0.00267831 0.00624004,0.00504812 0.00949328,0.00741794 0.186696,0.150785 0.374879,0.290576 0.572247,0.426216l0.872035 0.604302c0.203916,0.141277 0.43899,0.212512 0.674948,0.212512 0.197676,0 0.395941,-0.0501587 0.577295,-0.151079l1.22257 -0.678804c0.246348,-0.136832 0.409894,-0.375468 0.449073,-0.654475 0.039179,-0.279301 -0.052837,-0.553849 -0.252294,-0.753306l-0.980654 -0.981509z"/>
 </g>
</svg>
