<?xml version="1.0" encoding="UTF-8"?>
<!DOCTYPE svg PUBLIC "-//W3C//DTD SVG 1.1//EN" "http://www.w3.org/Graphics/SVG/1.1/DTD/svg11.dtd">
<!-- Creator: CorelDRAW -->
<svg xmlns="http://www.w3.org/2000/svg" xml:space="preserve" width="64px" height="64px" style="shape-rendering:geometricPrecision; text-rendering:geometricPrecision; image-rendering:optimizeQuality; fill-rule:evenodd; clip-rule:evenodd"
viewBox="0 0 62.4906 62.4906"
 xmlns:xlink="http://www.w3.org/1999/xlink"
 version="1.1">
 <defs>
  <style type="text/css">
   <![CDATA[
    .fil0 {fill:#84C225}
   ]]>
  </style>
 </defs>
 <g id="Layer_x0020_1">
  <metadata id="CorelCorpID_0Corel-Layer"/>
  <g id="_87019104">
   <g>
    <g>
     <path id="_89405608" class="fil0" d="M31.2453 0c-17.2282,0 -31.2453,14.017 -31.2453,31.2453 0,17.2283 14.017,31.2453 31.2453,31.2453 17.2283,0 31.2453,-14.017 31.2453,-31.2453 0,-17.2282 -14.017,-31.2453 -31.2453,-31.2453zm0 59.3686c-15.5079,0 -28.1233,-12.6154 -28.1233,-28.1233 0,-15.5079 12.6154,-28.1233 28.1233,-28.1233 15.508,0 28.1233,12.6154 28.1233,28.1233 0,15.508 -12.6154,28.1233 -28.1233,28.1233z"/>
     <path id="_89405752" class="fil0" d="M39.4261 23.6379l-11.9782 11.9145 -4.37076 -4.39628c-0.611677,-0.611677 -1.59284,-0.611677 -2.20448,-0.0127166 -0.611677,0.598872 -0.611677,1.59284 -0.0127608,2.20448l5.46664 5.50487c0.305817,0.305817 0.70087,0.458725 1.10864,0.458725 0.395009,0 0.790063,-0.152908 1.09588,-0.458725l13.0868 -13.0104c0.611633,-0.611677 0.611633,-1.59289 0.0127166,-2.20452 -0.611633,-0.611633 -1.59284,-0.611633 -2.20448,4.41549e-005z"/>
    </g>
   </g>
   <g>
   </g>
   <g>
   </g>
   <g>
   </g>
   <g>
   </g>
   <g>
   </g>
   <g>
   </g>
   <g>
   </g>
   <g>
   </g>
   <g>
   </g>
   <g>
   </g>
   <g>
   </g>
   <g>
   </g>
   <g>
   </g>
   <g>
   </g>
   <g>
   </g>
  </g>
 </g>
</svg>
