<?xml version="1.0" encoding="UTF-8"?>
<!DOCTYPE svg PUBLIC "-//W3C//DTD SVG 1.1//EN" "http://www.w3.org/Graphics/SVG/1.1/DTD/svg11.dtd">
<!-- Creator: CorelDRAW -->
<svg xmlns="http://www.w3.org/2000/svg" xml:space="preserve" width="26px" height="26px" style="shape-rendering:geometricPrecision; text-rendering:geometricPrecision; image-rendering:optimizeQuality; fill-rule:evenodd; clip-rule:evenodd"
viewBox="0 0 29.6067 29.6058"
 xmlns:xlink="http://www.w3.org/1999/xlink">
 <defs>
  <style type="text/css">
   <![CDATA[
    .fil0 {fill:#636b7f}
   ]]>
  </style>
 </defs>
 <g id="Layer_x0020_1">
  <metadata id="CorelCorpID_0Corel-Layer"/>
  <g id="_86035728">
   <path id="_88404976" class="fil0" d="M28.6806 13.8777l-11.719 0c-0.510694,0 -0.925187,-0.414476 -0.925187,-0.925187 0,-0.510694 0.414476,-0.925187 0.925187,-0.925187l11.719 1.63915e-005c0.510694,0 0.925187,0.414476 0.925187,0.925187 0,0.510694 -0.414476,0.925187 -0.925187,0.925187l0 -1.63915e-005zm0 0z"/>
   <path id="_88405120" class="fil0" d="M24.0547 18.5036c-0.236939,0 -0.473666,-0.0901206 -0.653907,-0.27128 -0.3614,-0.36163 -0.3614,-0.947545 0,-1.30894l3.97222 -3.97199 -3.97222 -3.97222c-0.3614,-0.3614 -0.3614,-0.947315 0,-1.30872 0.36163,-0.36163 0.947545,-0.36163 1.30894,0l4.6259 4.6259c0.3614,0.3614 0.3614,0.947315 0,1.30872l-4.6259 4.6259c-0.181372,0.182503 -0.418099,0.272624 -0.655038,0.272624l0 1.63915e-005zm0 0z"/>
   <path id="_88405216" class="fil0" d="M9.86868 29.6058c-0.264051,0 -0.514546,-0.0370448 -0.764812,-0.114741l-7.42382 -2.47332c-1.01011,-0.352811 -1.68005,-1.29403 -1.68005,-2.34615l0 -22.2043c0,-1.36066 1.10656,-2.46722 2.46722,-2.46722 0.263822,0 0.514317,0.0370448 0.764812,0.114741l7.42359 2.47332c1.01034,0.352811 1.68005,1.29403 1.68005,2.34615l0 22.2043c0,1.36066 -1.10633,2.46722 -2.46701,2.46722l1.63915e-005 0zm-7.40146 -27.7554c-0.339255,0 -0.616862,0.277607 -0.616862,0.616862l0 22.2043c0,0.262691 0.176406,0.506859 0.428032,0.594504l7.38902 2.46225c0.0530757,0.0171619 0.122199,0.0271116 0.201255,0.0271116 0.339255,0 0.616633,-0.277607 0.616633,-0.616862l0 -22.2043c0,-0.262691 -0.176406,-0.506859 -0.428032,-0.594504l-7.38904 -2.46225c-0.0530757,-0.0171619 -0.122199,-0.0271116 -0.201026,-0.0271116l1.63915e-005 0zm0 0z"/>
   <path id="_88405312" class="fil0" d="M18.8119 9.8687c-0.510694,0 -0.925187,-0.414476 -0.925187,-0.925187l0 -5.55109c0,-0.849966 -0.691853,-1.54205 -1.54182,-1.54205l-13.8777 0c-0.510694,0 -0.925187,-0.414476 -0.925187,-0.925187 0,-0.510694 0.414476,-0.925187 0.925187,-0.925187l13.8777 1.63915e-005c1.87137,0 3.39218,1.52103 3.39218,3.39241l0 5.55109c0,0.510694 -0.414476,0.925187 -0.925187,0.925187zm0 0z"/>
   <path id="_88405408" class="fil0" d="M16.345 25.9051l-4.93445 0c-0.510694,0 -0.925187,-0.414476 -0.925187,-0.925187 0,-0.510694 0.414476,-0.925187 0.925187,-0.925187l4.93445 0c0.849966,0 1.54182,-0.692083 1.54182,-1.54205l0 -5.55109c0,-0.510694 0.414476,-0.925187 0.925187,-0.925187 0.510711,0 0.925187,0.414476 0.925187,0.925187l0 5.55109c0,1.87137 -1.52081,3.39241 -3.39218,3.39241l-1.63915e-005 1.63915e-005zm0 0z"/>
  </g>
 </g>
</svg>
