<?xml version="1.0" encoding="UTF-8"?>
<!DOCTYPE svg PUBLIC "-//W3C//DTD SVG 1.1//EN" "http://www.w3.org/Graphics/SVG/1.1/DTD/svg11.dtd">
<!-- Creator: CorelDRAW -->
<svg xmlns="http://www.w3.org/2000/svg" xml:space="preserve" width="28px" height="26px" style="shape-rendering:geometricPrecision; text-rendering:geometricPrecision; image-rendering:optimizeQuality; fill-rule:evenodd; clip-rule:evenodd"
viewBox="0 0 28 25.6826"
 xmlns:xlink="http://www.w3.org/1999/xlink"
 version="1.1">
 <defs>
  <style type="text/css">
   <![CDATA[
    .fil0 {fill:#DD137B}
   ]]>
  </style>
 </defs>
 <g id="Layer_x0020_1">
  <metadata id="CorelCorpID_0Corel-Layer"/>
  <g id="_89127760">
   <g>
    <g>
     <path id="_89127664" class="fil0" d="M24.2381 3.76195c-2.42539,-2.42539 -5.65156,-3.76195 -9.07937,-3.76195 -3.49117,0 -6.75768,1.37688 -9.19459,3.87717 -0.265013,0.270773 -0.25924,0.7086 0.01152,0.979373 0.270773,0.265013 0.7086,0.25924 0.979373,-0.01152 2.17767,-2.22952 5.08699,-3.45661 8.20369,-3.45661 6.31984,-0.00576 11.4587,5.13307 11.4587,11.4529 0,6.31984 -5.13883,11.4587 -11.4587,11.4587 -6.31984,0 -11.4529,-5.13883 -11.4529,-11.4587l0 -0.144027 1.13492 1.14068c0.132507,0.132507 0.311093,0.20164 0.489693,0.20164 0.1786,0 0.351427,-0.0691333 0.489693,-0.20164 0.270773,-0.270773 0.270773,-0.7086 0,-0.979373l-2.31593 -2.32169c-0.270773,-0.270773 -0.7086,-0.270773 -0.979373,0l-2.32169 2.32169c-0.270773,0.270773 -0.270773,0.7086 0,0.979373 0.270773,0.270773 0.7086,0.270773 0.979373,0l1.14068 -1.14068 0 0.144027c0,3.42781 1.33656,6.65397 3.76195,9.07937 2.42539,2.4254 5.65156,3.76195 9.07937,3.76195 3.42781,0 6.65397,-1.33656 9.07937,-3.76195 2.41963,-2.42539 3.75619,-5.65156 3.75619,-9.07937 0,-3.42781 -1.33657,-6.65399 -3.76196,-9.07937z"/>
     <path id="_89127784" class="fil0" d="M15.1587 4.81044c-0.380227,0 -0.69132,0.311093 -0.69132,0.69132l0 1.67645 -0.43784 1.33333e-005c-1.74559,0 -3.16856,1.42297 -3.16856,3.16856 0,1.74559 1.42297,3.16856 3.16856,3.16856l2.25832 0c0.985133,0 1.78592,0.800787 1.78592,1.78592 0,0.985133 -0.800787,1.78592 -1.78592,1.78592l-4.06152 0c-0.380227,0 -0.69132,0.311093 -0.69132,0.69132 0,0.380227 0.311093,0.69132 0.69132,0.69132l2.24104 0 0 1.69951c0,0.380227 0.311093,0.69132 0.69132,0.69132 0.380227,0 0.69132,-0.311093 0.69132,-0.69132l0 -1.69951 0.460893 0c0.00576,0 0.01152,0 0.01728,0 1.72831,-0.02304 3.12824,-1.43449 3.12824,-3.16856 0,-1.74559 -1.42297,-3.16856 -3.16856,-3.16856l-2.25833 0c-0.985133,0 -1.78592,-0.800787 -1.78592,-1.78592 0,-0.985133 0.800787,-1.78592 1.78592,-1.78592l3.98663 0c0.380227,0 0.69132,-0.311093 0.69132,-0.69132 0,-0.380227 -0.311093,-0.69132 -0.69132,-0.69132l-2.16613 0 0 -1.67645c0,-0.380227 -0.305333,-0.691333 -0.691333,-0.691333z"/>
    </g>
   </g>
   <g>
   </g>
   <g>
   </g>
   <g>
   </g>
   <g>
   </g>
   <g>
   </g>
   <g>
   </g>
   <g>
   </g>
   <g>
   </g>
   <g>
   </g>
   <g>
   </g>
   <g>
   </g>
   <g>
   </g>
   <g>
   </g>
   <g>
   </g>
   <g>
   </g>
  </g>
 </g>
</svg>
