<?xml version="1.0" encoding="UTF-8"?>
<!DOCTYPE svg PUBLIC "-//W3C//DTD SVG 1.1//EN" "http://www.w3.org/Graphics/SVG/1.1/DTD/svg11.dtd">
<!-- Creator: CorelDRAW -->
<svg xmlns="http://www.w3.org/2000/svg" xml:space="preserve" width="15px" height="16px" style="shape-rendering:geometricPrecision; text-rendering:geometricPrecision; image-rendering:optimizeQuality; fill-rule:evenodd; clip-rule:evenodd"
viewBox="0 0 11.756 12.2047"
 xmlns:xlink="http://www.w3.org/1999/xlink"
 enable-background="new 0 0 64 64">
 <defs>
  <style type="text/css">
   <![CDATA[
    .fil0 {fill:#575E72}
   ]]>
  </style>
 </defs>
 <g id="Layer_x0020_1">
  <metadata id="CorelCorpID_0Corel-Layer"/>
  <g id="_90511072">
   <path id="_90524080" class="fil0" d="M8.32717 0.448741l-4.89834 0c-1.89076,0 -3.42883,1.53808 -3.42883,3.42883l0 4.89833c0,1.89076 1.53808,3.42883 3.42883,3.42883l4.89834 1.15709e-005c1.89076,0 3.42883,-1.53808 3.42883,-3.42883l0 -4.89833c0,-1.89076 -1.53808,-3.42883 -3.42883,-3.42883l0 -1.15709e-005zm2.44916 8.32717c0,1.35047 -1.0987,2.44917 -2.44917,2.44917l-4.89833 -1.15709e-005c-1.35047,0 -2.44917,-1.0987 -2.44917,-2.44917l0 -4.89833c0,-1.35047 1.0987,-2.44917 2.44917,-2.44917l4.89834 1.15709e-005c1.35047,0 2.44917,1.0987 2.44917,2.44917l-1.15709e-005 4.89833z"/>
   <path id="_90510352" class="fil0" d="M3.91867 5.10216c-0.270388,0 -0.489829,0.219441 -0.489829,0.489829l0 3.67375c0,0.270388 0.219441,0.489829 0.489829,0.489829 0.270388,0 0.489829,-0.219441 0.489829,-0.489829l0 -3.67375c0,-0.270388 -0.219441,-0.489829 -0.489829,-0.489829z"/>
   <path id="_88714080" class="fil0" d="M7.3475 5.59199l-0.489829 0c-0.171931,0 -0.336272,0.0313455 -0.489829,0.0857169l0 -0.0857169c0,-0.270388 -0.219441,-0.489829 -0.489829,-0.489829 -0.270388,0 -0.489829,0.219441 -0.489829,0.489829l0 1.4695 0 2.20425c0,0.270388 0.219441,0.489829 0.489829,0.489829 0.270388,0 0.489829,-0.219441 0.489829,-0.489829l0 -2.20425c0,-0.270145 0.219696,-0.489829 0.489829,-0.489829l0.489829 0c0.270145,0 0.489829,0.219696 0.489829,0.489829l0 2.20425c0,0.270388 0.219441,0.489829 0.489829,0.489829 0.270388,0 0.489829,-0.219441 0.489829,-0.489829l0 -2.20425c0,-0.810435 -0.659076,-1.4695 -1.4695,-1.4695l1.15709e-005 0z"/>
   <path id="_90511240" class="fil0" d="M3.91867 2.89791c-0.405096,0 -0.73475,0.329654 -0.73475,0.73475 0,0.405096 0.329654,0.73475 0.73475,0.73475 0.405096,0 0.73475,-0.329654 0.73475,-0.73475 0,-0.405096 -0.329654,-0.73475 -0.73475,-0.73475z"/>
  </g>
 </g>
</svg>
