<?xml version="1.0" encoding="UTF-8"?>
<!DOCTYPE svg PUBLIC "-//W3C//DTD SVG 1.1//EN" "http://www.w3.org/Graphics/SVG/1.1/DTD/svg11.dtd">
<!-- Creator: CorelDRAW -->
<svg xmlns="http://www.w3.org/2000/svg" xml:space="preserve" width="26px" height="26px" style="shape-rendering:geometricPrecision; text-rendering:geometricPrecision; image-rendering:optimizeQuality; fill-rule:evenodd; clip-rule:evenodd"
viewBox="0 0 26 26.0913"
 xmlns:xlink="http://www.w3.org/1999/xlink">
 <defs>
  <style type="text/css">
   <![CDATA[
    .fil0 {fill:#DD137B}
   ]]>
  </style>
 </defs>
 <g id="Layer_x0020_1">
  <metadata id="CorelCorpID_0Corel-Layer"/>
  <path class="fil0" d="M19.3292 15.685l-3.53292 0c-0.966907,0 -1.75316,0.786279 -1.75316,1.75316l0 2.70945c0,0.966907 0.786254,1.75316 1.75316,1.75316l3.53292 0c0.966883,0 1.75316,-0.786254 1.75316,-1.75316l0 -2.70945c0,-0.966883 -0.786279,-1.75316 -1.75316,-1.75316zm0.478119 4.46261c0,0.265633 -0.217821,0.478144 -0.478144,0.478144l-3.5329 0c-0.265633,0 -0.478144,-0.217821 -0.478144,-0.478144l0 -2.70945c0,-0.265633 0.217821,-0.478119 0.478144,-0.478119l3.53292 0c0.265633,0 0.478119,0.217797 0.478119,0.478119l0 2.70945z"/>
  <path class="fil0" d="M26 10.3452c0,-0.111577 -0.0265487,-0.217821 -0.0850044,-0.313445l-3.8676 -9.70762c-0.111553,-0.196582 -0.324064,-0.324088 -0.552504,-0.324088l-16.9951 2.42454e-005c-0.22844,0 -0.440951,0.122173 -0.552529,0.324064l-3.86227 9.70762c-0.0531217,0.0956239 -0.0850044,0.201892 -0.0850044,0.313445 0,1.52472 0.919095,2.83165 2.2313,3.41072l0 11.6979c0,0.350637 0.286872,0.637533 0.637533,0.637533l3.52225 -2.42454e-005c0.00530974,0 0.0106195,0 0.0159535,0l4.94073 0c0.00530974,0 0.0106195,0 0.0159292,0l11.7622 0c0.350613,0 0.637509,-0.286872 0.637509,-0.637509l0 -11.6182c0,-0.026573 0,-0.0478362 -0.00530974,-0.0690752 1.31752,-0.579077 2.24192,-1.89129 2.24192,-3.42132zm-21.1283 -9.0648l16.2513 0 3.02287 8.2254 -22.2918 0 3.01756 -8.2254zm13.6322 9.49511c-0.201892,1.14754 -1.20597,2.01882 -2.41193,2.01882 -1.20597,0 -2.21004,-0.871283 -2.41193,-2.01882l4.82387 0zm-6.17858 0c-0.201892,1.14754 -1.20597,2.01882 -2.41193,2.01882 -1.20597,0 -2.21004,-0.871283 -2.41724,-2.01882l4.82918 0zm-11.0078 0l4.82918 0c-0.201892,1.14754 -1.21128,2.01882 -2.41724,2.01882 -1.20597,0.00530974 -2.21007,-0.871283 -2.41193,-2.01882zm9.39272 14.0408l-3.66574 0 0 -6.87985c0,-0.499383 0.403759,-0.908475 0.908475,-0.908475l1.85412 0c0.499383,0 0.908451,0.403759 0.908451,0.908475l0 6.87985 -0.00530974 0zm11.7781 0l-10.503 0 0 -6.87985c0,-1.20066 -0.977526,-2.18349 -2.18349,-2.18349l-1.85412 0c-1.20066,0 -2.18349,0.977526 -2.18349,2.18349l0 6.88516 -2.25785 0 0 -10.7523c0.0743607,0.00530974 0.148746,0.00530974 0.22313,0.00530974 1.28564,0 2.42255,-0.653438 3.09194,-1.64692 0.669367,0.99348 1.80628,1.64692 3.09194,1.64692 1.28564,0 2.41724,-0.653438 3.09194,-1.64692 0.669367,0.99348 1.80628,1.64692 3.08663,1.64692 1.28564,0 2.41724,-0.653438 3.08661,-1.64692 0.669391,0.99348 1.80631,1.64692 3.09194,1.64692 0.0743849,0 0.14346,-0.00530974 0.217821,-0.00530974l2.42454e-005 10.7469 0 0zm-0.217821 -12.0167c-1.20597,0 -2.21004,-0.871283 -2.41193,-2.01879l4.8292 0c-0.207201,1.1422 -1.2113,2.01879 -2.41727,2.01879z"/>
 </g>
</svg>
