<?xml version="1.0" encoding="UTF-8"?>
<!DOCTYPE svg PUBLIC "-//W3C//DTD SVG 1.1//EN" "http://www.w3.org/Graphics/SVG/1.1/DTD/svg11.dtd">
<!-- Creator: CorelDRAW -->
<svg xmlns="http://www.w3.org/2000/svg" xml:space="preserve" width="18px" height="16px" style="shape-rendering:geometricPrecision; text-rendering:geometricPrecision; image-rendering:optimizeQuality; fill-rule:evenodd; clip-rule:evenodd"
viewBox="0 0 18 16.4219"
 xmlns:xlink="http://www.w3.org/1999/xlink">
 <defs>
  <style type="text/css">
   <![CDATA[
    .str0 {stroke:#1F1A17;stroke-width:0.0220502}
    .fil0 {fill:#575E72}
   ]]>
  </style>
 </defs>
 <g id="Layer_x0020_1">
  <metadata id="CorelCorpID_0Corel-Layer"/>
  <path class="fil0 str0" d="M8.0883 1.46871l0 0c-0.902089,0.520841 -1.214,1.68507 -0.693191,2.58713l5.91471 10.2446c0.520812,0.902089 1.68502,1.21406 2.58713,0.69322l0 0c0.902089,-0.520812 1.21403,-1.68502 0.693191,-2.58713l-5.91471 -10.2446c-0.520812,-0.902089 -1.68502,-1.21403 -2.58713,-0.69322zm-7.36826 13.8595c-0.442335,-0.525442 -0.70902,-1.20356 -0.70902,-1.94409 0,-0.655718 0.209072,-1.26268 0.564016,-1.75785l5.71345 -9.89581c0.253085,-0.53531 0.664457,-1.00169 1.21314,-1.31847l0 0c1.43708,-0.829688 3.29167,-0.332749 4.12136,1.1043l5.96498 10.3316c0.829688,1.43708 0.332749,3.29167 -1.1043,4.12136l0 0c-1.43708,0.829688 -3.2917,0.332749 -4.12136,-1.1043l-3.34483 -5.79338 -3.36821 5.83398c-0.829833,1.43682 -2.68422,1.93396 -4.12118,1.10419l0 0c-0.302423,-0.174607 -0.562945,-0.394849 -0.778527,-0.646776l-0.0086233 -0.0100702 -0.0208927 -0.0247124zm1.86179 -4.93151c0.146828,-0.0219344 0.29707,-0.0333936 0.450003,-0.0333936 1.288,0 2.38767,0.806249 2.82213,1.94151l2.51511 -4.3563 -1.97175 -3.41517c-0.0763943,-0.13233 -0.141416,-0.268161 -0.195616,-0.406452l-3.61987 6.2698zm0.450003 4.81122c-1.00722,0 -1.8238,-0.81658 -1.8238,-1.8238 0,-1.00722 0.81658,-1.8238 1.8238,-1.8238 1.00722,0 1.8238,0.81658 1.8238,1.8238 0,1.00722 -0.81658,1.8238 -1.8238,1.8238z"/>
 </g>
</svg>
