<?xml version="1.0" encoding="UTF-8"?>
<!DOCTYPE svg PUBLIC "-//W3C//DTD SVG 1.1//EN" "http://www.w3.org/Graphics/SVG/1.1/DTD/svg11.dtd">
<!-- Creator: CorelDRAW -->
<svg xmlns="http://www.w3.org/2000/svg" xml:space="preserve" width="12px" height="12px" style="shape-rendering:geometricPrecision; text-rendering:geometricPrecision; image-rendering:optimizeQuality; fill-rule:evenodd; clip-rule:evenodd"
viewBox="0 0 12 12"
 xmlns:xlink="http://www.w3.org/1999/xlink">
 <defs>
  <style type="text/css">
   <![CDATA[
    .fil0 {fill:#727D9B}
    .fil1 {fill:#727D9B;fill-rule:nonzero}
   ]]>
  </style>
 </defs>
 <g id="Layer_x0020_1">
  <metadata id="CorelCorpID_0Corel-Layer"/>
  <path class="fil0" d="M6 12c3.30832,0 6,-2.69168 6,-6 0,-3.30832 -2.69168,-6 -6,-6 -3.30832,0 -6,2.69168 -6,6 0,3.30832 2.69168,6 6,6zm0 -11.4005c2.97798,0 5.40049,2.42251 5.40049,5.40049 0,2.97798 -2.42251,5.40049 -5.40049,5.40049 -2.97798,0 -5.40049,-2.42251 -5.40049,-5.40049 0,-2.97798 2.42251,-5.40049 5.40049,-5.40049z"/>
  <path class="fil1" d="M5.45605 7.41999c0.00601768,-0.350108 0.0450756,-0.625098 0.118712,-0.827955 0.0736254,-0.202846 0.222392,-0.426742 0.449286,-0.673171l0.577013 -0.595043c0.246428,-0.277987 0.369643,-0.577013 0.369643,-0.897078 0,-0.308041 -0.0811361,-0.549956 -0.241927,-0.724264 -0.162284,-0.174307 -0.396688,-0.261461 -0.704729,-0.261461 -0.299026,0 -0.540953,0.079643 -0.722771,0.237413 -0.181818,0.159286 -0.271969,0.371158 -0.271969,0.638626l-0.814426 0c0.00600628,-0.476342 0.174296,-0.859513 0.50789,-1.15102 0.333582,-0.29302 0.766342,-0.438778 1.30128,-0.438778 0.55447,0 0.98723,0.148767 1.29678,0.446288 0.309534,0.299026 0.464307,0.707738 0.464307,1.22615 0,0.513896 -0.237413,1.02029 -0.713744,1.51917l-0.47934 0.474827c-0.214881,0.237413 -0.32157,0.580022 -0.32157,1.0263l-0.814426 0zm-0.0360605 1.39445c0,-0.130736 0.0405737,-0.241927 0.12171,-0.332089 0.0811475,-0.0886468 0.199848,-0.133734 0.359135,-0.133734 0.15777,0 0.277987,0.045087 0.360628,0.133734 0.0826519,0.0901626 0.123214,0.201353 0.123214,0.332089 0,0.132229 -0.0405623,0.241927 -0.123214,0.329069 -0.0826405,0.0856607 -0.202857,0.129232 -0.360628,0.129232 -0.159286,0 -0.277987,-0.0435712 -0.359135,-0.129232 -0.0811361,-0.0871423 -0.12171,-0.19684 -0.12171,-0.329069z"/>
 </g>
</svg>
