<?xml version="1.0" encoding="UTF-8"?>
<!DOCTYPE svg PUBLIC "-//W3C//DTD SVG 1.1//EN" "http://www.w3.org/Graphics/SVG/1.1/DTD/svg11.dtd">
<!-- Creator: CorelDRAW -->
<svg xmlns="http://www.w3.org/2000/svg" xml:space="preserve" width="12px" height="12px" style="shape-rendering:geometricPrecision; text-rendering:geometricPrecision; image-rendering:optimizeQuality; fill-rule:evenodd; clip-rule:evenodd"
viewBox="0 0 12 11.9973"
 xmlns:xlink="http://www.w3.org/1999/xlink">
 <defs>
  <style type="text/css">
   <![CDATA[
    .fil0 {fill:#DD137B}
   ]]>
  </style>
 </defs>
 <g id="Layer_x0020_1">
  <metadata id="CorelCorpID_0Corel-Layer"/>
  <path class="fil0" d="M6 0c-1.60276,0 -3.1095,0.624248 -4.2425,1.7575 -1.13326,1.13326 -1.7575,2.63975 -1.7575,4.2425 0,1.60274 0.624248,3.1095 1.7575,4.24276 1.16975,1.16975 2.706,1.7545 4.2425,1.7545 1.5365,0 3.073,-0.584752 4.2425,-1.7545 1.13326,-1.13326 1.7575,-2.64 1.7575,-4.24276 0,-1.60276 -0.624248,-3.1095 -1.7575,-4.2425 -1.13326,-1.13326 -2.63975,-1.7575 -4.2425,-1.7575zm3.5355 9.53575c-1.9495,1.9495 -5.1215,1.9495 -7.071,0 -0.944256,-0.944504 -1.4645,-2.20025 -1.4645,-3.53575 0,-1.3355 0.520252,-2.59126 1.4645,-3.5355 0.944244,-0.944244 2.2,-1.4645 3.5355,-1.4645 1.3355,0 2.59126,0.520252 3.5355,1.4645 0.944244,0.944244 1.4645,2.2 1.4645,3.5355 0,1.3355 -0.520252,2.59126 -1.4645,3.53575zm-3.03856 -1.89746l-1.0667 0c-0.00284646,-0.166665 -0.0042874,-0.266965 -0.0042874,-0.304004 0,-0.373465 0.0571299,-0.680563 0.171366,-0.921295 0.114236,-0.242291 0.344138,-0.51235 0.686858,-0.814819 0.342709,-0.300921 0.548339,-0.498449 0.614031,-0.592583 0.104244,-0.14661 0.155646,-0.310193 0.155646,-0.487654 0,-0.246921 -0.0913819,-0.458339 -0.274169,-0.635811 -0.182787,-0.175925 -0.428398,-0.263882 -0.738272,-0.263882 -0.298441,0 -0.548339,0.0925866 -0.749681,0.276236 -0.199925,0.183638 -0.338433,0.464504 -0.414106,0.841039l-1.07812 -0.145051c0.0299882,-0.54013 0.242752,-0.998457 0.636874,-1.375 0.395551,-0.376535 0.912472,-0.564815 1.55506,-0.564815 0.674008,0 1.21093,0.191362 1.61075,0.572528 0.398409,0.381177 0.598323,0.824079 0.598323,1.33179 0,0.279331 -0.0742559,0.54476 -0.219909,0.794752 -0.147083,0.250004 -0.459803,0.591047 -0.939602,1.02161 -0.248469,0.22376 -0.402697,0.40278 -0.462673,0.538583 -0.0599646,0.135803 -0.0871063,0.378083 -0.0813898,0.728386zm-1.0667 1.70833l0 -1.27006 1.17523 0 0 1.27006 -1.17523 0z"/>
 </g>
</svg>
