<?xml version="1.0" encoding="UTF-8"?>
<!DOCTYPE svg PUBLIC "-//W3C//DTD SVG 1.1//EN" "http://www.w3.org/Graphics/SVG/1.1/DTD/svg11.dtd">
<!-- Creator: CorelDRAW -->
<svg xmlns="http://www.w3.org/2000/svg" xml:space="preserve" width="16px" height="16px" style="shape-rendering:geometricPrecision; text-rendering:geometricPrecision; image-rendering:optimizeQuality; fill-rule:evenodd; clip-rule:evenodd"
viewBox="0 0 16 16"
 xmlns:xlink="http://www.w3.org/1999/xlink">
 <defs>
  <style type="text/css">
   <![CDATA[
    .fil0 {fill:#575E72}
   ]]>
  </style>
 </defs>
 <g id="Layer_x0020_1">
  <metadata id="CorelCorpID_0Corel-Layer"/>
  <path class="fil0" d="M11.3333 0l-6.66668 0c-2.57334,0 -4.66666,2.09334 -4.66666,4.66666l0 6.66666c0,2.57334 2.09334,4.66666 4.66666,4.66666l6.66668 1.5748e-005c2.57334,0 4.66666,-2.09334 4.66666,-4.66666l0 -6.66666c0,-2.57334 -2.09334,-4.66666 -4.66666,-4.66666l0 -1.5748e-005zm3.33332 11.3333c0,1.838 -1.49534,3.33334 -3.33334,3.33334l-6.66666 -1.5748e-005c-1.838,0 -3.33334,-1.49534 -3.33334,-3.33334l0 -6.66666c0,-1.838 1.49534,-3.33334 3.33334,-3.33334l6.66668 1.5748e-005c1.838,0 3.33334,1.49534 3.33334,3.33334l-1.5748e-005 6.66666zm-5.59493 -1.07175l-1.59003 0c-0.00426772,-0.22989 -0.0063937,-0.368236 -0.0063937,-0.419323 0,-0.515118 0.0851496,-0.938693 0.255433,-1.27076 0.170283,-0.334173 0.512976,-0.706677 1.02383,-1.12387 0.510866,-0.415071 0.81737,-0.687528 0.915291,-0.81737 0.155386,-0.202205 0.232,-0.427843 0.232,-0.67263 0,-0.340567 -0.13622,-0.632173 -0.408677,-0.876961 -0.272457,-0.242661 -0.638567,-0.363984 -1.10046,-0.363984 -0.444882,0 -0.81737,0.127717 -1.1175,0.381008 -0.298,0.253307 -0.504472,0.640709 -0.617291,1.16006l-1.60706 -0.200079c0.0446929,-0.744992 0.361858,-1.37718 0.949339,-1.89655 0.589606,-0.519354 1.36014,-0.779039 2.318,-0.779039 1.00468,0 1.80501,0.263937 2.40101,0.789685 0.593874,0.525764 0.891874,1.13666 0.891874,1.83694 0,0.385276 -0.110693,0.751386 -0.327795,1.09622 -0.219244,0.344819 -0.685402,0.815228 -1.4006,1.4091 -0.370362,0.30863 -0.600252,0.555543 -0.689654,0.742866 -0.0894016,0.187307 -0.129843,0.521496 -0.121323,1.00468zm-1.59003 2.35631l0 -1.75181 1.7518 0 0 1.75181 -1.7518 0z"/>
 </g>
</svg>
