<?xml version="1.0" encoding="UTF-8"?>
<!DOCTYPE svg PUBLIC "-//W3C//DTD SVG 1.1//EN" "http://www.w3.org/Graphics/SVG/1.1/DTD/svg11.dtd">
<!-- Creator: CorelDRAW -->
<svg xmlns="http://www.w3.org/2000/svg" xml:space="preserve" width="16px" height="16px" style="shape-rendering:geometricPrecision; text-rendering:geometricPrecision; image-rendering:optimizeQuality; fill-rule:evenodd; clip-rule:evenodd"
viewBox="0 0 16 16"
 xmlns:xlink="http://www.w3.org/1999/xlink">
 <defs>
  <style type="text/css">
   <![CDATA[
    .fil0 {fill:#575E72}
   ]]>
  </style>
 </defs>
 <g id="Layer_x0020_1">
  <metadata id="CorelCorpID_0Corel-Layer"/>
  <path class="fil0" d="M3.14959e-005 1.5748e-005l7.31578 0 0 7.31578 -7.31578 0 0 -7.31578zm1.39826 1.39826l4.51927 0 0 4.51927 -4.51927 0 0 -4.51927zm12.1631 3.47893l2.43862 0 0 2.43862 -2.43862 0 0 -2.43862zm0 0l-2.4386 0 0 -2.4386 2.4386 0 0 2.4386zm-4.87721 -4.87721l2.4386 0 0 2.4386 -2.4386 0 0 -2.4386zm3.14959e-005 4.87721l2.43862 0 0 2.43862 -2.43862 0 0 -2.43862zm4.87718 -4.87719l2.43862 0 0 2.43862 -2.43862 0 0 -2.43862zm-4.87716 8.68415l7.31578 0 0 7.31578 -7.31578 0 0 -7.31578zm1.39826 1.39826l4.51927 0 0 4.51927 -4.51927 0 0 -4.51927zm-5.20524 3.4789l2.43862 0 0 2.43862 -2.43862 0 0 -2.43862zm0 0l-2.4386 0 0 -2.4386 2.4386 0 0 2.4386zm-4.87721 -4.87721l2.4386 0 0 2.4386 -2.4386 0 0 -2.4386zm3.14959e-005 4.87721l2.43862 0 0 2.43862 -2.43862 0 0 -2.43862zm4.87718 -4.87719l2.43862 0 0 2.43862 -2.43862 0 0 -2.43862z"/>
 </g>
</svg>
