<?xml version="1.0" encoding="UTF-8"?>
<!DOCTYPE svg PUBLIC "-//W3C//DTD SVG 1.1//EN" "http://www.w3.org/Graphics/SVG/1.1/DTD/svg11.dtd">
<!-- Creator: CorelDRAW -->
<svg xmlns="http://www.w3.org/2000/svg" xml:space="preserve" width="16px" height="16px" style="shape-rendering:geometricPrecision; text-rendering:geometricPrecision; image-rendering:optimizeQuality; fill-rule:evenodd; clip-rule:evenodd"
viewBox="0 0 16 16"
 xmlns:xlink="http://www.w3.org/1999/xlink">
 <defs>
  <style type="text/css">
   <![CDATA[
    .fil0 {fill:#575E72}
   ]]>
  </style>
 </defs>
 <g id="Layer_x0020_1">
  <metadata id="CorelCorpID_0Corel-Layer"/>
  <path class="fil0" d="M11.3333 0l-6.66668 0c-2.57334,0 -4.66666,2.09334 -4.66666,4.66666l0 6.66666c0,2.57334 2.09334,4.66666 4.66666,4.66666l6.66668 1.5748e-005c2.57334,0 4.66666,-2.09334 4.66666,-4.66666l0 -6.66666c0,-2.57334 -2.09334,-4.66666 -4.66666,-4.66666l0 -1.5748e-005zm3.33332 11.3333c0,1.838 -1.49534,3.33334 -3.33334,3.33334l-6.66666 -1.5748e-005c-1.838,0 -3.33334,-1.49534 -3.33334,-3.33334l0 -6.66666c0,-1.838 1.49534,-3.33334 3.33334,-3.33334l6.66668 1.5748e-005c1.838,0 3.33334,1.49534 3.33334,3.33334l-1.5748e-005 6.66666zm-11.9386 -7.04666l0 0c0.259276,-0.259291 0.683512,-0.259276 0.942803,0l4.32917 4.32918 4.32917 -4.32918c0.259291,-0.259276 0.683528,-0.259291 0.942803,0l0 0c0.259291,0.259276 0.259276,0.683512 0,0.942803l-2.7705 2.7705 2.7705 2.77052c0.259276,0.259291 0.259291,0.683528 0,0.942803l0 0c-0.259276,0.259291 -0.683512,0.259276 -0.942803,0l-2.7705 -2.77052 -1.08532 1.08534c-0.130126,0.130142 -0.301811,0.194913 -0.473339,0.194425 -0.171528,0.000488189 -0.343213,-0.0642835 -0.473339,-0.194425l-1.08532 -1.08532 -2.7705 2.7705c-0.259291,0.259276 -0.683528,0.259291 -0.942803,0l0 0c-0.259291,-0.259276 -0.259276,-0.683512 0,-0.942803l2.7705 -2.77052 -2.7705 -2.7705c-0.259276,-0.259291 -0.259291,-0.683528 0,-0.942803z"/>
 </g>
</svg>
