<?xml version="1.0" encoding="UTF-8"?>
<!DOCTYPE svg PUBLIC "-//W3C//DTD SVG 1.1//EN" "http://www.w3.org/Graphics/SVG/1.1/DTD/svg11.dtd">
<!-- Creator: CorelDRAW -->
<svg xmlns="http://www.w3.org/2000/svg" xml:space="preserve" width="16px" height="16px" style="shape-rendering:geometricPrecision; text-rendering:geometricPrecision; image-rendering:optimizeQuality; fill-rule:evenodd; clip-rule:evenodd"
viewBox="0 0 9.14481 9.14481"
 xmlns:xlink="http://www.w3.org/1999/xlink"
 enable-background="new 0 0 64 64">
 <defs>
  <style type="text/css">
   <![CDATA[
    .fil0 {fill:#575E72}
   ]]>
  </style>
 </defs>
 <g id="Layer_x0020_1">
  <metadata id="CorelCorpID_0Corel-Layer"/>
  <g id="_87936144">
   <path id="_90343440" class="fil0" d="M6.47758 0l-3.81034 0c-1.47079,0 -2.66723,1.19645 -2.66723,2.66723l0 3.81034c0,1.47079 1.19645,2.66723 2.66723,2.66723l3.81034 9.0008e-006c1.47079,0 2.66723,-1.19645 2.66723,-2.66723l0 -3.81034c0,-1.47079 -1.19645,-2.66723 -2.66723,-2.66723l0 -9.0008e-006zm-2.2862 6.85861c0,-0.210331 -0.1707,-0.381031 -0.381031,-0.381031l-0.762071 0 0 -0.762071 0.762062 0c0.210331,0 0.381031,-0.1707 0.381031,-0.381031l0 -1.52413c0,-0.630425 0.512686,-1.1431 1.1431,-1.1431l1.52414 -9.0008e-006 0 0.762071 -1.1431 0c-0.420283,0 -0.762071,0.341787 -0.762071,0.762071l0 1.1431c0,0.210331 0.1707,0.381031 0.381031,0.381031l1.46013 0 -0.221951 0.762071 -1.23817 0c-0.210331,0 -0.381031,0.1707 -0.381031,0.381031l0 1.52413 -0.762071 0 0 -1.52413zm4.19137 -0.381031c0,1.05051 -0.854662,1.90517 -1.90517,1.90517l-0.762062 -9.0008e-006 0 -1.1431 1.1431 0c0.169557,0 0.318547,-0.111835 0.365792,-0.274533l0.36617 -1.25665c0.0579201,-0.171087 0.0316288,-0.360077 -0.0716374,-0.509058 -0.106884,-0.153941 -0.282535,-0.245956 -0.469815,-0.245956l-1.33361 -9.0008e-006 0 -0.762071 1.52413 9.0008e-006c0.210331,0 0.381031,-0.1707 0.381031,-0.381031l0 -1.52413c0,-0.210331 -0.1707,-0.381031 -0.381031,-0.381031l-1.90516 -9.0008e-006c-1.05051,0 -1.90517,0.854662 -1.90517,1.90517l0 1.1431 -0.762071 -9.0008e-006c-0.210331,0 -0.381031,0.1707 -0.381031,0.381031l0 1.52413c0,0.210331 0.1707,0.381031 0.381031,0.381031l0.762071 9.0008e-006 0 1.1431 -0.762071 0c-1.05051,0 -1.90517,-0.854662 -1.90517,-1.90517l0 -3.81034c0,-1.05051 0.854662,-1.90517 1.90517,-1.90517l3.81034 9.0008e-006c1.05051,0 1.90517,0.854662 1.90517,1.90517l-9.0008e-006 3.81034z"/>
  </g>
 </g>
</svg>
