<?xml version="1.0" encoding="UTF-8"?>
<!DOCTYPE svg PUBLIC "-//W3C//DTD SVG 1.1//EN" "http://www.w3.org/Graphics/SVG/1.1/DTD/svg11.dtd">
<!-- Creator: CorelDRAW -->
<svg xmlns="http://www.w3.org/2000/svg" xml:space="preserve" width="17px" height="16px" style="shape-rendering:geometricPrecision; text-rendering:geometricPrecision; image-rendering:optimizeQuality; fill-rule:evenodd; clip-rule:evenodd"
viewBox="0 0 17.1371 15.9587"
 xmlns:xlink="http://www.w3.org/1999/xlink"
 version="1.1">
 <defs>
  <style type="text/css">
   <![CDATA[
    .fil0 {fill:#636b7f}
   ]]>
  </style>
 </defs>
 <g id="Layer_x0020_1">
  <metadata id="CorelCorpID_0Corel-Layer"/>
  <g id="_87203384">
   <g>
    <g>
     <path id="_136911368" class="fil0" d="M9.05838 6.83993c-0.188119,0.188129 -0.188119,0.489844 0,0.677964 0.777352,0.777352 0.777352,2.04098 0,2.81832l-4.08195 4.08195c-0.777352,0.777342 -2.04098,0.777342 -2.81832,0l-0.614067 -0.614067c-0.777352,-0.777352 -0.777352,-2.04098 0,-2.81832l4.08195 -4.08195c0.188119,-0.188129 0.188119,-0.489834 0,-0.677964 -0.188129,-0.188119 -0.489834,-0.188119 -0.677964,0l-4.08195 4.08195c-0.55727,0.55729 -0.866083,1.29913 -0.866083,2.08713 0,0.788 0.305264,1.52985 0.866083,2.08712l0.614077 0.614067c0.575016,0.575026 1.33106,0.862544 2.08711,0.862544 0.756057,0 1.5121,-0.287518 2.08712,-0.862544l4.08196 -4.08195c1.15004,-1.15004 1.15004,-3.02419 0,-4.17424 -0.18458,-0.188129 -0.489834,-0.188129 -0.677964,-1.00261e-005z"/>
     <path id="_136911464" class="fil0" d="M16.2746 1.4766l-0.614077 -0.614067c-1.15004,-1.15004 -3.02419,-1.15004 -4.17424,0l-4.08195 4.08195c-1.15004,1.15005 -1.15004,3.0242 0,4.17424 0.188129,0.188129 0.489834,0.188129 0.677964,0 0.188119,-0.188119 0.188119,-0.489834 0,-0.677953 -0.777352,-0.777352 -0.777352,-2.04098 0,-2.81832l4.08195 -4.08195c0.777352,-0.777352 2.04098,-0.777352 2.81832,0l0.614067 0.614067c0.777352,0.777352 0.777352,2.04098 0,2.81832l-4.08195 4.08195c-0.188129,0.188119 -0.188129,0.489834 0,0.677964 0.0922901,0.09228 0.216523,0.141979 0.337197,0.141979 0.120684,0 0.244917,-0.04615 0.337207,-0.141979l4.08195 -4.08196c0.55727,-0.55727 0.866083,-1.29912 0.866083,-2.08712 1.00261e-005,-0.78798 -0.305254,-1.52984 -0.862524,-2.08712z"/>
    </g>
   </g>
   <g>
   </g>
   <g>
   </g>
   <g>
   </g>
   <g>
   </g>
   <g>
   </g>
   <g>
   </g>
   <g>
   </g>
   <g>
   </g>
   <g>
   </g>
   <g>
   </g>
   <g>
   </g>
   <g>
   </g>
   <g>
   </g>
   <g>
   </g>
   <g>
   </g>
  </g>
 </g>
</svg>
