<?xml version="1.0" encoding="UTF-8"?>
<!DOCTYPE svg PUBLIC "-//W3C//DTD SVG 1.1//EN" "http://www.w3.org/Graphics/SVG/1.1/DTD/svg11.dtd">
<!-- Creator: CorelDRAW -->
<svg xmlns="http://www.w3.org/2000/svg" xml:space="preserve" width="14px" height="14px" style="shape-rendering:geometricPrecision; text-rendering:geometricPrecision; image-rendering:optimizeQuality; fill-rule:evenodd; clip-rule:evenodd"
viewBox="0 0 14 14.0005"
 xmlns:xlink="http://www.w3.org/1999/xlink">
 <defs>
  <style type="text/css">
   <![CDATA[
    .fil0 {fill:#DD137B}
   ]]>
  </style>
 </defs>
 <g id="Layer_x0020_1">
  <metadata id="CorelCorpID_0Corel-Layer"/>
  <path class="fil0" d="M13.4532 0l-12.9063 0c-0.302082,0 -0.546921,0.244807 -0.546921,0.54689 0,1.523 0.652862,2.97702 1.79124,3.98889l2.39515 2.12886c0.415308,0.369166 0.653492,0.899624 0.653492,1.45538l0 5.33318c0,0.435809 0.487091,0.697079 0.850171,0.454921l3.22662 -2.15097c0.152114,-0.101493 0.243546,-0.272183 0.243546,-0.455048l0 -3.18208c0,-0.555752 0.238216,-1.08621 0.653524,-1.45538l2.39506 -2.12886c1.13834,-1.0119 1.79121,-2.46589 1.79121,-3.98889 0,-0.302082 -0.244839,-0.54689 -0.546795,-0.54689l0 0zm-4.36616 5.83895c-0.648604,0.5766 -1.02064,1.40498 -1.02064,2.27275l0 2.88953 -2.13281 1.42182 0 -4.31122c0,-0.867896 -0.372068,-1.69627 -1.02064,-2.27287l-2.39506 -2.12886c-0.767601,-0.682445 -1.25756,-1.61752 -1.38873,-2.6246l11.7417 0c-0.131172,1.00708 -0.621038,1.94215 -1.38873,2.6245l-2.39506 2.12896z"/>
 </g>
</svg>
