<?xml version="1.0" encoding="UTF-8"?>
<!DOCTYPE svg PUBLIC "-//W3C//DTD SVG 1.1//EN" "http://www.w3.org/Graphics/SVG/1.1/DTD/svg11.dtd">
<!-- Creator: CorelDRAW -->
<svg xmlns="http://www.w3.org/2000/svg" xml:space="preserve" width="361px" height="64px" style="shape-rendering:geometricPrecision; text-rendering:geometricPrecision; image-rendering:optimizeQuality; fill-rule:evenodd; clip-rule:evenodd"
viewBox="0 0 361 63.9431"
 xmlns:xlink="http://www.w3.org/1999/xlink">
 <defs>
  <style type="text/css">
   <![CDATA[
    .fil1 {fill:#575E72}
    .fil2 {fill:#DD137B}
    .fil0 {fill:#DD137B;fill-rule:nonzero}
   ]]>
  </style>
 </defs>
 <g id="Layer_x0020_1">
  <metadata id="CorelCorpID_0Corel-Layer"/>
  <path class="fil0" d="M169.672 42.8085c2.17587,0 4.02587,0.754216 5.568,2.2788 1.54167,1.52459 2.3125,3.37505 2.3125,5.55046 0,2.17587 -0.770833,4.02587 -2.3125,5.568 -1.54213,1.54167 -3.39213,2.3125 -5.568,2.3125 -2.17541,0 -4.04295,-0.770833 -5.56754,-2.3125 -1.54213,-1.54213 -2.31296,-3.39213 -2.31296,-5.568 0,-2.17541 0.770833,-4.02587 2.31296,-5.55046 1.52459,-1.52459 3.39213,-2.2788 5.56754,-2.2788z"/>
  <path class="fil1" d="M221.389 14.0005c10.1039,0 18.2978,8.19391 18.2978,18.2978 0,0.907921 -0.0673902,1.79923 -0.195247,2.67161l-1.31549 0 -7.08936 0 -19.3945 0c1.17102,4.25712 5.06811,7.38615 9.6968,7.38615 2.68407,0 5.12258,-1.05239 6.92642,-2.76623l7.74249 3.64553c-3.33674,4.4676 -8.66518,7.36076 -14.6689,7.36076 -10.1039,0 -18.2978,-8.19391 -18.2978,-18.2978 0,-10.1039 8.19391,-18.2978 18.2978,-18.2978zm79.0745 0c10.1039,0 18.2978,8.19391 18.2978,18.2978 0,10.1039 -8.19391,18.2978 -18.2978,18.2978 -10.1039,0 -18.2978,-8.19391 -18.2978,-18.2978 0,-10.1039 8.19391,-18.2978 18.2978,-18.2978zm21.1254 0.0923153l7.64232 0 0 5.49045c0.836838,-1.76276 1.92985,-3.10133 3.30212,-4.01618 1.36442,-0.920845 2.86085,-1.37827 4.49022,-1.38335l0.0281562 -0.0327719 2.3605 0 0 7.83988 -4.09834 0 -0.00276946 0.0133857c-1.37181,0 -2.53221,0.847916 -3.48029,2.54329 -0.94854,1.70691 -1.41704,5.03165 -1.41704,10.0074l0.0332335 1.72907 0 14.3804 -8.85812 0 0 -36.5716zm25.7897 -12.3449l8.48332 0 0 12.403 5.13827 0 0 7.83988 -5.13827 0 0 28.6736 -8.48332 0 0 -28.6736 -5.13873 0 0 -7.83988 5.13873 0 0 -12.403zm-46.9151 20.4926c5.55369,0 10.0578,4.50406 10.0578,10.0578 0,5.55369 -4.50406,10.0578 -10.0578,10.0578 -5.55369,0 -10.0578,-4.50406 -10.0578,-10.0578 0,-5.55369 4.50406,-10.0578 10.0578,-10.0578zm-57.998 -8.41823l8.48332 0 0 3.21119c2.89316,-1.91693 6.36191,-3.03302 10.0914,-3.03302 10.1039,0 18.2978,8.19391 18.2978,18.2978 0,10.1039 -8.19391,18.2978 -18.2978,18.2978 -3.72954,0 -7.19829,-1.11794 -10.0914,-3.03487l0 15.1776 -8.48332 0 0 -48.9165zm18.5748 8.41823c5.55369,0 10.0578,4.50406 10.0578,10.0578 0,5.55369 -4.50406,10.0578 -10.0578,10.0578 -5.55369,0 -10.0578,-4.50406 -10.0578,-10.0578 0,-5.55369 4.50406,-10.0578 10.0578,-10.0578zm-60.7772 -8.08959l-2.36004 0 -0.0281562 0.0327719c-1.62937,0.00507734 -3.1258,0.462961 -4.49022,1.38335 -1.37227,0.914845 -2.46574,2.25342 -3.30212,4.01618l0 -5.49045 -7.64232 0 0 36.5716 8.85812 0 0 -14.3804 -0.0332335 -1.72907c0,-4.9758 0.4685,-8.30053 1.41658,-10.0074 0.94854,-1.69537 2.10848,-2.54329 3.48075,-2.54329l0.00276946 -0.0133857 4.09788 0 0 -7.83988zm30.4147 14.2853c-1.51443,-3.63769 -5.10319,-6.19574 -9.28877,-6.19574 -4.18558,0 -7.77434,2.55806 -9.28877,6.19574l18.5775 0zm-85.8777 -14.3813l3.17934 0c0.0221557,-4.65223 0.108471,-6.37253 0.223403,-7.22321 0.264483,-1.96124 1.05978,-3.51444 2.46528,-4.65223 1.4055,-1.14886 3.40274,-1.71799 5.96865,-1.71799 1.85185,0 3.94925,0.423727 6.2696,1.27164l0 6.80549c-1.28272,-0.379416 -2.33142,-0.558046 -3.16826,-0.558046 -1.03762,0 -1.81353,0.205402 -2.28711,0.64713 -0.351721,0.328181 -0.514196,1.00439 -0.524351,2.03048l-0.0332335 3.39674 5.65616 0 0 7.58601 -5.65616 0 0 29.0235 -8.91397 0 0 -29.0235 -3.17934 0 0 -7.58601zm-42.2029 0.0960079l-2.36004 0 -0.0281562 0.0327719c-1.62983,0.00507734 -3.1258,0.462961 -4.49022,1.38335 -1.37227,0.914845 -2.46574,2.25342 -3.30258,4.01618l0 -5.49045 -7.64186 0 0 36.5716 8.85812 0 0 -14.3804 -0.0336951 -1.72907c0,-4.9758 0.468962,-8.30053 1.41704,-10.0074 0.94854,-1.69537 2.10848,-2.54329 3.48075,-2.54329l0.00276946 -0.0133857 4.09788 0 0 -7.83988zm11.8371 14.2853l18.5785 0c-1.51443,-3.63769 -5.10411,-6.19574 -9.28969,-6.19574 -4.18558,0 -7.77434,2.55806 -9.28877,6.19574zm18.9865 6.53362l-19.3945 0c1.17102,4.25712 5.06811,7.38615 9.6968,7.38615 2.68407,0 5.12258,-1.05239 6.92642,-2.76623l7.74249 3.64553c-3.33674,4.4676 -8.66518,7.36076 -14.6689,7.36076 -10.1039,0 -18.2978,-8.19391 -18.2978,-18.2978 0,-10.1039 8.19391,-18.2978 18.2978,-18.2978 10.1039,0 18.2978,8.19391 18.2978,18.2978 0,0.907921 -0.0673902,1.79923 -0.195247,2.67161l-1.31549 0 -7.08936 0z"/>
  <g id="_90164816">
   <polygon id="_90710896" class="fil2" points="11.0783,39.5368 10.5161,37.0752 5.39952,39.5368 "/>
   <polygon id="_90710824" class="fil2" points="12.9786,35.8908 13.8108,39.5368 22.2401,39.5368 24.3265,30.4304 "/>
   <polygon id="_90710752" class="fil2" points="18.0176,57.968 21.6304,42.201 14.4192,42.201 "/>
   <polygon id="_90710680" class="fil2" points="23.7264,27.7629 8.32592,15.5053 12.3707,33.2266 "/>
   <polygon id="_90710608" class="fil2" points="38.519,39.5368 27.0627,30.4184 24.9741,39.5368 "/>
   <polygon id="_90710536" class="fil2" points="36.549,21.5935 32.8343,5.22736 28.1594,25.6295 "/>
   <polygon id="_90710464" class="fil2" points="40.1424,37.4242 37.1541,24.2595 28.7073,28.3233 "/>
   <polygon id="_90710392" class="fil2" points="26.6653,42.201 45.2456,59.9076 41.2271,42.201 "/>
   <polygon id="_90710320" class="fil2" points="7.51354,11.4536 19.4767,5.69355 31.2981,0 25.4103,25.6987 "/>
   <polygon id="_90710248" class="fil2" points="0,39.1777 2.89732,26.4825 5.49784,15.0876 9.9082,34.411 "/>
   <polygon id="_90710176" class="fil2" points="16.1012,61.5429 8.81427,52.406 0.67621,42.201 11.6867,42.201 "/>
   <polygon id="_90710104" class="fil2" points="45.619,63.9431 32.771,63.9431 19.3821,63.9431 24.0837,43.4214 "/>
   <polygon id="_90710032" class="fil2" points="64.8667,42.201 56.7282,52.406 48.5911,62.6096 43.9592,42.201 "/>
   <polygon id="_90709960" class="fil2" points="59.7908,13.9752 62.6452,26.4825 65.6251,39.5368 44.5168,39.5368 "/>
   <polygon id="_63013640" class="fil2" points="34.3972,0.0738523 46.0672,5.69355 57.8263,11.3562 39.0125,20.4081 "/>
   <polygon id="_90164840" class="fil2" points="42.8195,37.1823 55.9435,15.2191 39.6171,23.0738 "/>
  </g>
 </g>
</svg>
